<?xml version="1.0" standalone="no"?>
<!DOCTYPE svg PUBLIC "-//W3C//DTD SVG 1.1//EN" "http://www.w3.org/Graphics/SVG/1.1/DTD/svg11.dtd" >
<svg xmlns="http://www.w3.org/2000/svg">
<metadata></metadata>
<defs>
<font id="lionel_text_steamregular" horiz-adv-x="825" >
<font-face units-per-em="2048" ascent="1638" descent="-410" />
<missing-glyph horiz-adv-x="520" />
<glyph horiz-adv-x="2048" />
<glyph horiz-adv-x="2048" />
<glyph unicode="&#xd;" horiz-adv-x="489" />
<glyph unicode=" "  horiz-adv-x="520" />
<glyph unicode="&#x09;" horiz-adv-x="520" />
<glyph unicode="&#xa0;" horiz-adv-x="520" />
<glyph unicode="!" horiz-adv-x="311" d="M92 1298h127l-35 -997h-57zM100 61q0 60 56 60q53 0 53 -60q0 -61 -53 -61q-56 0 -56 61z" />
<glyph unicode="&#x22;" horiz-adv-x="463" d="M66 1219q0 79 49 79t49 -79q0 -306 -49 -306t-49 306zM301 1219q0 79 47 79q20 0 35.5 -24t15.5 -55q0 -85 -10 -175q-14 -131 -41 -131q-47 0 -47 306z" />
<glyph unicode="#" horiz-adv-x="1161" d="M68 385l8 94h248l30 320h-250l9 96h247l25 260h90l-24 -260h303l24 260h90l-24 -260h250l-9 -96h-247l-31 -320h248l-6 -94h-250l-23 -262h-90l25 262h-305l-23 -262h-90l22 262h-247zM414 479h303l31 320h-304z" />
<glyph unicode="$" horiz-adv-x="839" d="M66 915q0 122 87 216.5t220 121.5v164h104v-164q218 -32 291 -151l-76 -70q-61 80 -215 113v-490q146 -48 209 -108q76 -73 76 -199q0 -245 -285 -295v-164h-104v164q-172 30 -281 107l55 92q90 -61 226 -92v418q-307 77 -307 337zM170 915q0 -91 51 -145q45 -49 152 -84 v455q-203 -80 -203 -226zM477 160q182 38 182 188q0 126 -182 199v-387z" />
<glyph unicode="%" horiz-adv-x="1322" d="M66 1028q0 112 75.5 191t182.5 79q106 0 182 -79t76 -191q0 -111 -75.5 -188.5t-182.5 -77.5q-108 0 -183 77.5t-75 188.5zM166 1028q0 -68 46 -116t112 -48t112.5 48t46.5 116q0 69 -47 117.5t-112 48.5q-66 0 -112 -48.5t-46 -117.5zM379 0l450 1298h119l-450 -1298 h-119zM741 270q0 111 75.5 189t182.5 78q108 0 184.5 -78t76.5 -189t-77 -190.5t-184 -79.5q-106 0 -182 79.5t-76 190.5zM842 270q0 -68 46 -117t111 -49q66 0 113 49t47 117q0 69 -47 116.5t-113 47.5q-65 0 -111 -47.5t-46 -116.5z" />
<glyph unicode="&#x26;" horiz-adv-x="1172" d="M70 274q0 233 303 480q-164 175 -164 315q0 117 77 184q73 64 191 64q112 0 187 -70.5t75 -181.5q0 -143 -209 -317l312 -410q94 126 151 246l90 -45q-74 -153 -170 -271l174 -184l-77 -74l-172 180q-266 -217 -455 -217q-122 0 -217.5 90.5t-95.5 210.5zM203 295 q0 -85 63 -148t148 -63q149 0 331 184l-292 389q-128 -114 -165 -158q-85 -103 -85 -204zM315 1065q0 -100 134 -244q103 90 121 112q59 69 59 150q0 65 -45 101q-41 35 -107 35q-69 0 -115.5 -42.5t-46.5 -111.5z" />
<glyph unicode="'" horiz-adv-x="228" d="M66 1219q0 79 49 79t49 -79q0 -306 -49 -306t-49 306z" />
<glyph unicode="(" horiz-adv-x="495" d="M74 629q0 208 74.5 436t197.5 393l66 -63q-108 -152 -172 -366q-62 -206 -62 -400q0 -182 54 -369q60 -207 163 -336l-65 -80q-118 149 -189 371q-67 213 -67 414z" />
<glyph unicode=")" horiz-adv-x="495" d="M82 1393l65 63q124 -165 199.5 -393.5t75.5 -435.5q0 -201 -69 -414q-71 -222 -189 -371l-64 80q104 129 163 336q54 187 54 369q0 193 -62 400q-65 214 -173 366z" />
<glyph unicode="*" horiz-adv-x="690" d="M45 559l291 70l-291 69l84 152l211 -213l-82 289h172l-82 -289l213 213l84 -152l-291 -69l291 -70l-84 -151l-213 215l82 -291h-172l82 291l-211 -213z" />
<glyph unicode="+" horiz-adv-x="713" d="M66 561v131h231v252h121v-252h231v-131h-231v-252h-121v252h-231z" />
<glyph unicode="," horiz-adv-x="260" d="M66 -154l24 152v182h107v-170l-107 -188z" />
<glyph unicode="-" horiz-adv-x="713" d="M66 567v123h583v-123h-583z" />
<glyph unicode="." horiz-adv-x="251" d="M66 86q0 37 17 62.5t42 25.5t44 -26t19 -62q0 -35 -18.5 -60.5t-44.5 -25.5q-59 0 -59 86z" />
<glyph unicode="/" horiz-adv-x="598" d="M80 0l332 1298h106l-332 -1298h-106z" />
<glyph unicode="0" horiz-adv-x="1130" d="M96 651q0 246 121 442q136 222 348 222q213 0 350 -222q121 -196 121 -442q0 -245 -121 -442q-137 -221 -350 -221q-212 0 -348 221q-121 196 -121 442zM219 651q0 -182 74 -342q97 -209 272 -209q176 0 273 209q75 161 75 342q0 182 -75 343q-97 210 -273 210 q-175 0 -272 -210q-74 -160 -74 -343z" />
<glyph unicode="1" horiz-adv-x="303" d="M96 0v1298h113v-1298h-113z" />
<glyph unicode="2" horiz-adv-x="920" d="M123 1049q36 107 123 177q91 72 200 72q146 0 248 -112q99 -109 99 -256q0 -119 -158 -398q-117 -207 -242 -376h432v-156h-700q541 681 541 930q0 92 -64 162.5t-156 70.5q-80 0 -138.5 -55.5t-74.5 -136.5q-41 33 -110 78z" />
<glyph unicode="3" horiz-adv-x="968" d="M102 219l119 68q33 -72 100 -116t146 -44q112 0 192 84t80 197q0 84 -59.5 170t-138.5 118q133 136 133 262q0 89 -62.5 156.5t-150.5 67.5q-127 0 -187 -119l-110 63q42 84 123 135.5t174 51.5q140 0 239 -104t99 -244q0 -111 -80 -226q155 -144 155 -331 q0 -171 -117 -295q-120 -127 -290 -127q-115 0 -214.5 64.5t-150.5 168.5z" />
<glyph unicode="4" horiz-adv-x="1123" d="M115 350q301 539 331 948h125q-36 -388 -258 -829h414v643h115v-643h186v-119h-186v-350h-115v350h-612z" />
<glyph unicode="5" horiz-adv-x="972" d="M104 139l74 90q122 -112 273 -112q127 0 219 95.5t92 223.5t-92 225t-219 97q-94 0 -187 -51l86 591h451v-127h-371l-39 -297q194 -4 336 -122q152 -127 152 -316q0 -177 -125.5 -306.5t-302.5 -129.5q-195 0 -347 139z" />
<glyph unicode="6" horiz-adv-x="1031" d="M96 428q0 192 113 464q100 242 233 423l93 -70q-110 -152 -222 -416q145 45 203 45q177 0 300 -136q120 -132 120 -310t-120 -309q-123 -135 -300 -135q-180 0 -302 133q-118 129 -118 311zM213 428q0 -129 86 -224q89 -98 217 -98t218 98q87 95 87 224t-87 224 q-90 98 -218 98t-215.5 -96.5t-87.5 -225.5z" />
<glyph unicode="7" horiz-adv-x="947" d="M96 1165v133h744l-504 -1298h-137l452 1165h-555z" />
<glyph unicode="8" horiz-adv-x="1002" d="M96 387q0 202 201 342q-129 122 -129 256t100 228q97 94 232 94q134 0 232.5 -94t98.5 -228q0 -133 -129 -256q205 -141 205 -342q0 -163 -120.5 -278t-284.5 -115q-165 0 -284 114q-122 116 -122 279zM217 387q0 -116 84.5 -198.5t200.5 -82.5t200 83t84 198t-84 197 t-200 82t-200.5 -81.5t-84.5 -197.5zM291 985q0 -85 61.5 -146t147.5 -61t148.5 61t62.5 146q0 86 -62.5 146.5t-148.5 60.5t-147.5 -60.5t-61.5 -146.5z" />
<glyph unicode="9" horiz-adv-x="1031" d="M96 881q0 178 120 309q124 135 300 135q180 0 302 -133q118 -130 118 -311q0 -192 -114 -464q-101 -241 -234 -423l-92 69q109 153 221 416q-138 -43 -201 -43q-176 0 -300 135q-120 131 -120 310zM213 881q0 -129 86 -223q89 -97 217 -97t218 97q87 94 87 223t-87 224 q-90 97 -218 97t-215.5 -96t-87.5 -225z" />
<glyph unicode=":" horiz-adv-x="268" d="M74 66q0 67 59 67q26 0 45 -20.5t19 -46.5q0 -27 -19 -46.5t-45 -19.5q-59 0 -59 66zM74 612q0 68 59 68q26 0 45 -20.5t19 -47.5q0 -26 -19 -45.5t-45 -19.5q-59 0 -59 65z" />
<glyph unicode=";" horiz-adv-x="284" d="M74 -158l24 142v166h107v-156l-107 -174zM90 614q0 66 60 66q25 0 44 -19.5t19 -46.5q0 -26 -19 -45.5t-44 -19.5q-60 0 -60 65z" />
<glyph unicode="&#x3c;" horiz-adv-x="750" d="M92 604l594 354v-127l-385 -227l385 -227v-125z" />
<glyph unicode="=" horiz-adv-x="750" d="M66 401v127h620v-127h-620zM66 737v127h620v-127h-620z" />
<glyph unicode="&#x3e;" horiz-adv-x="750" d="M66 231v125l383 228l-383 227v127l591 -354z" />
<glyph unicode="?" horiz-adv-x="723" d="M78 1090q29 91 106 149.5t172 58.5q124 0 209.5 -90.5t85.5 -214.5q0 -82 -70 -163q-65 -62 -130 -125q-70 -70 -70 -127v-287h-105v291q0 79 128 208.5t128 202.5q0 74 -51 129.5t-125 55.5q-70 0 -120 -52t-54 -122q-22 37 -104 86zM250 84q0 34 23 58t57 24 q33 0 56.5 -24t23.5 -58t-23.5 -59t-56.5 -25q-34 0 -57 25t-23 59z" />
<glyph unicode="@" horiz-adv-x="1283" d="M66 618q0 267 168 471q179 218 440 218q255 0 407 -202q138 -183 138 -448q0 -121 -68 -226q-77 -120 -193 -120q-98 0 -151 121q-86 -129 -225 -129q-117 0 -193 96q-72 90 -72 209q0 146 84 262q93 127 234 127q100 0 196 -149l15 121h78q-14 -146 -28 -291 q-15 -174 -15 -291q0 -41 77 -41q168 4 168 311q0 223 -112 371q-124 164 -340 164q-218 0 -371 -180q-145 -171 -145 -394t142 -375q146 -155 368 -155q184 0 297 105l129 -50q-74 -71 -192 -112q-111 -39 -220 -39q-281 0 -448.5 172.5t-167.5 453.5zM395 631 q0 -91 52 -158q57 -72 145 -72q99 0 167 86q64 79 64 181q0 91 -53 158q-57 73 -145 73q-99 0 -167 -87q-63 -80 -63 -181z" />
<glyph unicode="A" horiz-adv-x="1294" d="M78 0l569 1366l570 -1366h-134l-182 436h-508l-182 -436h-133zM444 561h406l-203 488z" />
<glyph unicode="B" horiz-adv-x="893" d="M76 0v1298h385q129 0 221 -96t92 -231q0 -124 -117 -258q193 -142 193 -336q0 -167 -114.5 -272t-286.5 -105h-373zM199 115l250 2q120 1 200 64q90 71 90 196t-89 198q-81 68 -201 68h-250v-528zM199 764l262 -2h3q82 0 140 60q60 62 60 149t-59.5 150t-143.5 63h-262 v-420z" />
<glyph unicode="C" horiz-adv-x="1163" d="M45 653q0 275 187 473q190 203 462 203q234 0 414 -153l-88 -91q-144 117 -326 117q-221 0 -373.5 -163t-152.5 -386t151 -384q154 -165 375 -165q182 0 326 117l88 -90q-180 -154 -414 -154q-272 0 -462 203q-187 199 -187 473z" />
<glyph unicode="D" horiz-adv-x="1012" d="M76 0v1298h241q275 0 463.5 -187.5t188.5 -461.5t-188.5 -461.5t-463.5 -187.5h-241zM199 127h118q224 0 377.5 150t153.5 372q0 223 -153.5 372.5t-377.5 149.5h-118v-1044z" />
<glyph unicode="E" horiz-adv-x="893" d="M76 0v1298h764v-127h-641v-557h522v-129h-522v-358h641v-127h-764z" />
<glyph unicode="F" horiz-adv-x="893" d="M76 0v1298h764v-127h-641v-557h522v-129h-522v-485h-123z" />
<glyph unicode="G" horiz-adv-x="1337" d="M45 653q0 275 173 472q181 204 452 204q237 0 417 -158l-88 -90q-144 121 -329 121q-221 0 -368 -166q-142 -159 -142 -383q0 -219 144 -381q149 -168 366 -168q167 0 299 111q119 100 184 266h-631v129h770q-15 -257 -188 -441q-181 -192 -434 -192q-267 0 -449 207 q-176 200 -176 469z" />
<glyph unicode="H" horiz-adv-x="1042" d="M76 0v1298h123v-684h647v684h123v-1298h-123v485h-647v-485h-123z" />
<glyph unicode="I" horiz-adv-x="272" d="M76 0v1298h123v-1298h-123z" />
<glyph unicode="J" horiz-adv-x="883" d="M68 299l116 59q52 -231 258 -231q148 0 205 110q41 79 41 238v823h121v-878q0 -191 -89 -300q-97 -120 -284 -120q-301 0 -368 299z" />
<glyph unicode="K" horiz-adv-x="1018" d="M76 0v1298h123v-583l624 592l78 -97l-565 -536l618 -582l-80 -94l-628 592l-47 -47v-543h-123z" />
<glyph unicode="L" horiz-adv-x="893" d="M76 0v1298h123v-1171h641v-127h-764z" />
<glyph unicode="M" horiz-adv-x="1382" d="M76 0l94 1288l530 -756l514 754l93 -1286h-123l-66 924l-418 -613l-434 639l-67 -950h-123z" />
<glyph unicode="N" horiz-adv-x="1163" d="M76 2v1315l891 -985v964h123v-1284l-891 985v-995h-123z" />
<glyph unicode="O" horiz-adv-x="1389" d="M45 651q0 280 190 478t459 198q270 0 461 -198t191 -478t-191 -478t-461 -198q-269 0 -459 198t-190 478zM168 651q0 -227 154 -388t372 -161q219 0 374 161t155 388q0 228 -155 388.5t-374 160.5q-218 0 -372 -160.5t-154 -388.5z" />
<glyph unicode="P" horiz-adv-x="893" d="M76 0v1298h373q166 0 283.5 -123t117.5 -296q0 -174 -118 -296q-116 -120 -278 -120h-5l-250 2v-465h-123zM199 578l250 2q120 1 205 87.5t85 211.5q0 124 -85.5 213t-204.5 90l-250 2v-606z" />
<glyph unicode="Q" horiz-adv-x="1389" d="M45 641q0 278 190 475t459 197q270 0 461 -197t191 -475q0 -217 -130 -387q-135 -177 -393 -281q129 -53 189 -86q132 -72 248 -80l-35 -92q-99 7 -164 43q-190 105 -428 105q-135 0 -264 -82l-39 100q42 29 209 99q-494 218 -494 661zM168 641q0 -226 154 -385.5 t372 -159.5q219 0 374 159.5t155 385.5t-155 386.5t-374 160.5q-218 0 -372 -160.5t-154 -386.5z" />
<glyph unicode="R" horiz-adv-x="982" d="M76 2v1296h373q165 0 283 -122.5t118 -294.5q0 -261 -279 -402l347 -434l-87 -90l-448 561l199 98q157 81 157 267q0 124 -85.5 212t-204.5 89l-250 2v-1182h-123z" />
<glyph unicode="S" horiz-adv-x="889" d="M45 944q0 168 123 279q119 108 289 108q113 0 214 -42q115 -48 167 -134l-88 -84q-108 133 -295 133q-111 0 -197 -74q-90 -77 -90 -186q0 -166 172 -237q160 -55 319 -110q172 -86 172 -290q0 -164 -118 -256q-108 -84 -277 -84q-178 0 -362 127l63 109 q156 -109 295 -109q277 0 277 215q0 141 -172 206q-160 56 -320 113q-172 97 -172 316z" />
<glyph unicode="T" horiz-adv-x="1038" d="M74 1171v127h893v-127h-385v-1171h-123v1171h-385z" />
<glyph unicode="U" horiz-adv-x="1022" d="M63 463l3 835h122v-819q0 -151 89 -249q91 -103 241 -103q144 0 233 103q85 98 85 243v825h122l-2 -835q0 -213 -112 -336q-117 -127 -330 -127q-216 0 -333.5 123t-117.5 340z" />
<glyph unicode="V" horiz-adv-x="1189" d="M74 1241l112 49l408 -921l410 921l112 -49l-522 -1202z" />
<glyph unicode="W" horiz-adv-x="1659" d="M78 1298h133l401 -962l152 362l-250 600h133l182 -438l183 438h133l-250 -600l152 -362l401 962h133l-534 -1284l-218 527l-217 -527z" />
<glyph unicode="X" horiz-adv-x="1181" d="M88 0l428 649l-428 649h148l354 -538l356 538h146l-426 -649l428 -649h-148l-356 537l-354 -537h-148z" />
<glyph unicode="Y" horiz-adv-x="1180" d="M88 1298h148l354 -538l356 538h146l-439 -669v-629h-123v631z" />
<glyph unicode="Z" horiz-adv-x="897" d="M80 0l520 1171h-514v127h707l-512 -1171h553v-127h-754z" />
<glyph unicode="[" horiz-adv-x="540" d="M66 -70v1456h411v-126h-289v-1203h289v-127h-411z" />
<glyph unicode="\" horiz-adv-x="612" d="M80 1298h121l331 -1298h-120z" />
<glyph unicode="]" horiz-adv-x="540" d="M66 57h288v1203h-288v126h411v-1456h-411v127z" />
<glyph unicode="^" horiz-adv-x="887" d="M82 563l362 707l361 -707h-115l-246 481l-245 -481h-117z" />
<glyph unicode="_" horiz-adv-x="1223" d="M-12 -72h1247v-133h-1247v133z" />
<glyph unicode="`" horiz-adv-x="320" d="M76 1298h129l45 -327h-66z" />
<glyph unicode="a" d="M45 373q0 149 98 259q101 116 248 116q125 0 250 -156v156h100v-748h-100v164q-111 -164 -250 -164q-147 0 -248 114q-98 110 -98 259zM145 373q0 -106 71 -185t175 -79q105 0 179 80q71 78 71 184q0 105 -71 184q-74 82 -179 82q-104 0 -176 -82q-70 -78 -70 -184z" />
<glyph unicode="b" horiz-adv-x="815" d="M76 0v1155h100v-580q126 154 246 154q145 0 249 -111q101 -109 101 -256q0 -146 -102 -254t-248 -108q-135 0 -246 160v-160h-100zM176 362q0 -104 71 -181t175 -77t177 77t73 181q0 105 -73 183t-177 78t-175 -78t-71 -183z" />
<glyph unicode="c" horiz-adv-x="714" d="M45 373q0 149 98 259q101 116 248 116q165 0 273 -93l-52 -96q-86 80 -221 80q-104 0 -176 -82q-70 -78 -70 -184t71 -185t175 -79q124 0 254 69v-100q-125 -78 -254 -78q-147 0 -248 114q-98 110 -98 259z" />
<glyph unicode="d" d="M45 362q0 147 100.5 257t245.5 110q124 0 250 -154v580h100v-1155h-100v160q-111 -160 -250 -160q-145 0 -245.5 108t-100.5 254zM145 362q0 -104 71.5 -181t174.5 -77q104 0 177 77t73 181q0 105 -73 183t-177 78q-103 0 -174.5 -78t-71.5 -183z" />
<glyph unicode="e" horiz-adv-x="757" d="M45 373q0 146 92 257q98 118 242 118q146 0 247 -118q90 -104 90 -233q0 -12 -1 -24l-2 -33h-574q23 -97 81 -159q67 -72 159 -72q163 0 242 110l73 -63q-119 -156 -315 -156q-144 0 -241 116q-93 110 -93 257zM139 416h479q-26 94 -83 154q-67 69 -156 69 q-90 0 -156 -69q-58 -60 -84 -154z" />
<glyph unicode="f" horiz-adv-x="492" d="M76 616v113h82q0 208 34 285q56 125 236 137v-113q-166 -15 -166 -155v-154h131v-113h-131v-616h-104v616h-82z" />
<glyph unicode="g" horiz-adv-x="794" d="M45 381q0 147 99 255q102 112 247 112q125 0 250 -154v154h100v-736q0 -158 -104 -261t-262 -103q-131 0 -240 92l62 78q72 -66 170 -66q179 0 239 134q39 87 39 294q-113 -164 -254 -164q-145 0 -247 111q-99 107 -99 254zM145 381q0 -105 71 -180q72 -78 175 -78 q104 0 177 77t73 181t-73 183t-177 79q-103 0 -174.5 -78.5t-71.5 -183.5z" />
<glyph unicode="h" d="M76 0v1155h106v-608q104 182 301 182q256 0 256 -287v-442h-100v420q0 211 -203 211q-88 0 -160.5 -62.5t-93.5 -154.5v-414h-106z" />
<glyph unicode="i" horiz-adv-x="294" d="M72 993q0 33 21.5 55.5t51.5 22.5q31 0 53.5 -22.5t22.5 -55.5q0 -32 -22.5 -56t-53.5 -24q-30 0 -51.5 24t-21.5 56zM92 0v731h107v-731h-107z" />
<glyph unicode="j" horiz-adv-x="298" d="M76 993q0 32 21.5 55t52.5 23q30 0 52.5 -23t22.5 -55t-22.5 -55t-52.5 -23q-31 0 -52.5 23t-21.5 55zM96 -410v1145h107v-1145h-107z" />
<glyph unicode="k" horiz-adv-x="770" d="M76 0v1155h106v-752l338 326h156l-350 -334l348 -395h-146l-278 319l-68 -67v-252h-106z" />
<glyph unicode="l" horiz-adv-x="255" d="M76 0v1155h106v-1155h-106z" />
<glyph unicode="m" horiz-adv-x="1128" d="M76 0v748h100v-160q107 153 199 153q85 0 114 -11q82 -31 117 -146q59 100 144 136q48 10 96 21q17 5 35 5q75 0 129 -57q65 -68 65 -193v-496h-100v430q0 80 -32 142q-41 77 -116 77q-98 0 -153 -85q-47 -75 -47 -187v-377h-101v430q0 80 -33 142q-41 77 -116 77 q-100 0 -154 -86q-47 -75 -47 -188v-375h-100z" />
<glyph unicode="n" horiz-adv-x="792" d="M76 0v748h100v-211q100 211 307 211q256 0 256 -291v-457h-100v430q0 219 -203 219q-101 0 -180.5 -82.5t-79.5 -191.5v-375h-100z" />
<glyph unicode="o" horiz-adv-x="786" d="M45 373q0 154 101.5 264.5t244.5 110.5q144 0 247 -110.5t103 -264.5t-103 -263.5t-247 -109.5q-143 0 -244.5 109.5t-101.5 263.5zM145 373q0 -110 72 -187t174 -77t176 77t74 187q0 109 -74 187.5t-176 78.5t-174 -78.5t-72 -187.5z" />
<glyph unicode="p" horiz-adv-x="815" d="M76 -408v1156h100v-162q113 162 246 162q146 0 248 -109.5t102 -255.5q0 -147 -102 -256t-248 -109q-120 0 -246 154v-580h-100zM176 383q0 -104 71 -181t175 -77t177 77t73 181t-73 182t-177 78t-175 -77.5t-71 -182.5z" />
<glyph unicode="q" d="M45 383q0 147 99 254q102 111 247 111q138 0 250 -162v162h100v-1156h-100v580q-126 -154 -250 -154q-145 0 -247 111q-99 107 -99 254zM145 383q0 -104 71.5 -181t174.5 -77q104 0 177 77t73 181t-73 182t-177 78q-103 0 -174.5 -77.5t-71.5 -182.5z" />
<glyph unicode="r" horiz-adv-x="534" d="M76 0v748h100v-203q49 115 92 157q59 58 164 58q23 0 41 -4l-41 -127q-27 6 -47 6q-93 0 -154 -86q-55 -77 -55 -174v-375h-100z" />
<glyph unicode="s" horiz-adv-x="700" d="M53 137l64 76q133 -121 272 -121q154 0 154 113q0 74 -116 108q-108 30 -215 61q-116 54 -116 177q0 102 83 162q74 53 179 53q157 0 289 -96l-49 -72q-123 74 -242 74q-56 0 -98 -32q-45 -34 -45 -89q0 -72 115 -109l214 -68q115 -55 115 -171q0 -104 -85 -161 q-74 -50 -183 -50q-205 0 -336 145z" />
<glyph unicode="t" horiz-adv-x="520" d="M61 623v112h146v242h104v-242h146v-112h-146v-623h-104v623h-146z" />
<glyph unicode="u" horiz-adv-x="734" d="M66 373v375h100v-375q0 -110 44 -180q54 -84 157 -84t157 84q45 71 45 180v375h101v-375q0 -151 -75 -255q-83 -118 -228 -118t-228 118q-73 103 -73 255z" />
<glyph unicode="v" horiz-adv-x="846" d="M61 748h115l248 -525l246 525h114l-360 -748z" />
<glyph unicode="w" horiz-adv-x="1182" d="M59 748h113l219 -512l201 477l203 -477l215 512h112l-327 -748l-203 463l-201 -463z" />
<glyph unicode="x" horiz-adv-x="848" d="M72 748h131l221 -289l221 289h131l-287 -375l285 -373h-129l-221 289l-221 -289h-129l284 373z" />
<glyph unicode="y" d="M41 748h115l247 -482l246 482h115l-541 -1049h-117l240 455z" />
<glyph unicode="z" horiz-adv-x="766" d="M66 0l417 639h-370v109h565l-418 -639h410v-109h-604z" />
<glyph unicode="{" horiz-adv-x="671" d="M125 651q109 47 117 148v432q0 36 17 72q35 71 120 73l229 -24v-33h-170q-108 0 -112 -107v-413q-5 -26 -23 -49q-42 -56 -145 -88q154 -61 168 -164v-412q6 -108 95 -108q9 0 17 2h170v-35l-221 -25q-10 -1 -19 -1q-77 0 -109 75q-17 40 -17 82v422q-3 29 -15 55 q-29 62 -102 98z" />
<glyph unicode="|" horiz-adv-x="235" d="M66 0v1298h106v-1298h-106z" />
<glyph unicode="}" horiz-adv-x="671" d="M66 -20h165q9 -2 17 -2q90 0 98 108v412q0 26 23 60q43 63 145 104q-153 48 -170 137v413q-4 107 -113 107h-165v33l227 24q85 -2 120 -73q19 -37 19 -72v-432q2 -30 13 -55q28 -61 102 -93q-109 -54 -115 -153v-422q0 -41 -18 -82q-33 -75 -110 -75q-10 0 -19 1l-219 25 v35z" />
<glyph unicode="~" horiz-adv-x="867" d="M78 618q76 177 194 177q73 0 163 -86t149 -86q99 0 147 79l57 -26q-84 -178 -198 -178q-75 0 -168.5 86t-142.5 86q-86 0 -140 -82z" />
<glyph unicode="&#xa1;" horiz-adv-x="311" d="M92 0l35 997h57l35 -997h-127zM100 1237q0 61 56 61q53 0 53 -61q0 -59 -53 -59q-56 0 -56 59z" />
<glyph unicode="&#xa2;" horiz-adv-x="756" d="M66 653q0 132 81.5 231.5t210.5 129.5v284h101v-284q151 -24 225 -84l-51 -96q-91 79 -221 79q-103 0 -174.5 -78t-71.5 -182t71 -180t175 -76q121 0 254 68v-96q-92 -55 -211 -74v-295h-101v297q-127 30 -207.5 128t-80.5 228z" />
<glyph unicode="&#xa3;" horiz-adv-x="1204" d="M66 610v74h198q-35 128 -35 199q0 169 114 296q118 130 286 130q122 0 226 -75.5t149 -191.5l-99 -59q-30 90 -105 149q-78 60 -171 60q-120 0 -206 -96q-83 -92 -83 -213q0 -80 37 -199h391v-74h-365q104 -228 105 -374q251 -125 379 -125q94 0 131 108h117 q-21 -90 -80 -153q-66 -72 -152 -72q-98 0 -279 73.5t-282 73.5q-120 0 -182 -88h-86q47 170 340 185q-34 208 -111 372h-237z" />
<glyph unicode="&#xa4;" horiz-adv-x="1500" d="M66 399v136h301l-7 176h-294v135h323q69 215 242.5 348t380.5 133q233 0 413 -153l-88 -91q-144 117 -325 117q-154 0 -285 -92q-135 -94 -211 -262h592l-49 -135h-574l-2 -58q-1 -43 13 -118h501l-49 -136h-409q181 -297 473 -297q181 0 325 117l88 -90 q-180 -154 -413 -154q-192 0 -358 116t-246 308h-342z" />
<glyph unicode="&#xa5;" horiz-adv-x="1180" d="M88 1298h148l354 -538l356 538h146l-353 -534h162v-137h-248v-174h248v-138h-248v-315h-123v315h-249v138h249v174h-249v137h159z" />
<glyph unicode="&#xa6;" horiz-adv-x="237" d="M66 0v528h108v-528h-108zM66 782v516h108v-516h-108z" />
<glyph unicode="&#xa7;" horiz-adv-x="931" d="M66 1159q0 166 124 276q120 107 287 107q115 0 214 -40q114 -47 167 -134l-88 -82q-98 129 -295 129q-110 0 -196 -72q-91 -76 -91 -184q0 -163 172 -235q160 -56 320 -111q172 -87 172 -287q0 -67 -72 -137q86 -111 86 -244q0 -165 -124 -276q-120 -107 -287 -107 q-115 0 -215 41q-115 46 -168 134l90 81q97 -129 293 -129q110 0 197 72q91 77 91 184q0 164 -172 236q-159 55 -319 111q-172 87 -172 286q0 66 72 135q-86 111 -86 246zM158 776q0 -94 121 -162q68 -39 252 -100q168 -55 219 -92q24 67 24 106q0 94 -121 163 q-69 39 -254 99q-168 56 -219 93q-22 -62 -22 -107z" />
<glyph unicode="&#xa8;" horiz-adv-x="497" d="M66 1438q0 86 59 86q26 0 44.5 -25.5t18.5 -60.5q0 -36 -19 -62t-44 -26t-42 25.5t-17 62.5zM311 1438q0 86 60 86q26 0 44.5 -25.5t18.5 -60.5q0 -36 -19 -62t-44 -26t-42.5 25.5t-17.5 62.5z" />
<glyph unicode="&#xa9;" horiz-adv-x="1159" d="M66 651q0 224 150.5 382.5t363.5 158.5t364.5 -158.5t151.5 -382.5q0 -223 -152 -382.5t-364 -159.5q-213 0 -363.5 159t-150.5 383zM145 651q0 -188 127.5 -322t307.5 -134q179 0 307.5 134t128.5 322q0 189 -128.5 322t-307.5 133q-180 0 -307.5 -133t-127.5 -322z M311 651q0 118 80 201.5t193 83.5q126 0 211 -68l-37 -65q-71 59 -174 59q-84 0 -143.5 -61.5t-59.5 -149.5t59.5 -150.5t143.5 -62.5q95 0 196 51v-65q-98 -59 -196 -59q-113 0 -193 84t-80 202z" />
<glyph unicode="&#xaa;" horiz-adv-x="621" d="M66 958q0 108 68 187q72 84 177 84q72 0 170 -96v96h76v-543h-76v96q-90 -96 -170 -96q-105 0 -177 85q-68 80 -68 187zM141 958q0 -74 48.5 -131t121.5 -57q74 0 123 59q47 55 47 129q0 75 -47 130q-49 59 -123 59q-73 0 -121.5 -57t-48.5 -132z" />
<glyph unicode="&#xab;" horiz-adv-x="902" d="M88 379l361 239v-124l-189 -115l189 -111v-125zM477 379l361 239v-124l-189 -115l189 -111v-125z" />
<glyph unicode="&#xac;" horiz-adv-x="1022" d="M63 475v117h893v-592h-104v475h-789z" />
<glyph unicode="&#xad;" horiz-adv-x="713" d="M66 567v123h583v-123h-583z" />
<glyph unicode="&#xae;" horiz-adv-x="1159" d="M66 647q0 224 150.5 382.5t363.5 158.5t364.5 -158.5t151.5 -382.5t-152 -383.5t-364 -159.5q-213 0 -363.5 159.5t-150.5 383.5zM145 647q0 -189 127.5 -323t307.5 -134q179 0 307.5 134.5t128.5 322.5q0 189 -128.5 322t-307.5 133q-180 0 -307.5 -133t-127.5 -322z M422 385v551h164q71 0 123.5 -51t52.5 -125q0 -100 -119 -172l148 -182l-39 -39l-197 237l25 10q129 54 129 146q0 88 -82 114q-27 9 -66 11h-82v-500h-57z" />
<glyph unicode="&#xaf;" horiz-adv-x="668" d="M63 1165v113h539v-113h-539z" />
<glyph unicode="&#xb0;" horiz-adv-x="454" d="M66 1110q0 78 47 133t114 55q68 0 116 -55t48 -133t-48 -133t-116 -55q-67 0 -114 55t-47 133zM113 1110q0 -55 33 -94t81 -39t82.5 39t34.5 94t-34.5 94t-82.5 39t-81 -39t-33 -94z" />
<glyph unicode="&#xb1;" horiz-adv-x="713" d="M66 0v131h583v-131h-583zM66 543v129h231v243h121v-243h231v-129h-231v-246h-121v246h-231z" />
<glyph unicode="&#xb2;" horiz-adv-x="541" d="M88 1057q56 174 193 174q74 0 127 -60t53 -143t-197 -387h213v-84h-383q90 116 146 199q131 193 131 272q0 102 -113 102q-62 0 -100 -98z" />
<glyph unicode="&#xb3;" horiz-adv-x="495" d="M72 674l65 41q37 -82 105 -82q48 0 82 38.5t34 90.5q0 94 -108 127q80 89 80 135q0 39 -26.5 68.5t-63.5 29.5q-53 0 -78 -59l-64 37q48 98 142 98q65 0 111 -50.5t46 -121.5q0 -47 -30 -106q65 -77 65 -158q0 -85 -56 -147t-134 -62q-112 0 -170 121z" />
<glyph unicode="&#xb4;" horiz-adv-x="320" d="M70 971l45 327h129l-109 -327h-65z" />
<glyph unicode="&#xb6;" horiz-adv-x="904" d="M63 883q0 168 117 291.5t285 123.5h375v-1298h-105v473l-200 -4v-469h-107v471q-161 27 -263 141.5t-102 270.5zM158 883q0 -116 75 -200q71 -80 195 -116v635q-123 -36 -195 -118q-75 -85 -75 -201zM535 569l200 -4v637l-200 -2v-631z" />
<glyph unicode="&#xb7;" horiz-adv-x="251" d="M66 641q0 86 59 86q26 0 44.5 -25.5t18.5 -60.5q0 -36 -19 -62t-44 -26t-42 25.5t-17 62.5z" />
<glyph unicode="&#xb8;" horiz-adv-x="386" d="M66 -385l14 -2q11 -2 21 -2q58 0 98 38q45 42 45 118q0 83 -88 106q-31 8 -64 8h-12l61 146l70 -2l-41 -95q152 -51 152 -168q0 -120 -66 -168q-57 -41 -190 -45v66z" />
<glyph unicode="&#xb9;" horiz-adv-x="216" d="M66 557v666h86v-666h-86z" />
<glyph unicode="&#xba;" horiz-adv-x="621" d="M66 958q0 108 68 187q72 84 177 84q106 0 178 -84q68 -79 68 -187q0 -107 -68 -187q-72 -85 -178 -85q-105 0 -177 85q-68 80 -68 187zM141 958q0 -74 48.5 -131t121.5 -57q74 0 123 59q47 55 47 129q0 75 -47 130q-49 59 -123 59q-73 0 -121.5 -57t-48.5 -132z" />
<glyph unicode="&#xbb;" horiz-adv-x="902" d="M66 143v125l186 111l-186 115v124l358 -239zM455 143v125l186 111l-186 115v124l358 -239z" />
<glyph unicode="&#xbc;" horiz-adv-x="1234" d="M79 -28l946 1409h105l-948 -1409h-103zM198 576v723h86v-723h-86zM653 166q147 277 164 489h74q-18 -182 -119 -413h221v317h68v-317h90v-76h-90v-166h-68v166h-340z" />
<glyph unicode="&#xbd;" horiz-adv-x="1238" d="M81 0l946 1298h105l-948 -1298h-103zM201 557v666h86v-666h-86zM746 502q56 174 193 174q74 0 127 -60t53 -143t-197 -387h213v-84h-383q90 116 146 199q131 193 131 272q0 102 -113 102q-62 0 -100 -98z" />
<glyph unicode="&#xbe;" horiz-adv-x="1234" d="M61 703l65 45q37 -89 105 -89q48 0 82 42t34 98q0 102 -108 137q80 97 80 147q0 43 -26.5 75t-63.5 32q-53 0 -78 -65l-64 40q48 107 142 107q65 0 111 -55t46 -132q0 -51 -30 -115q65 -83 65 -171q0 -93 -56 -160t-134 -67q-112 0 -170 131zM79 -28l946 1409h105 l-948 -1409h-103zM653 166q147 277 164 489h74q-18 -182 -119 -413h221v317h68v-317h90v-76h-90v-166h-68v166h-340z" />
<glyph unicode="&#xbf;" horiz-adv-x="706" d="M66 305q0 82 70 162q65 63 130 125q70 70 70 129v287h104v-291q0 -81 -129 -208t-129 -204q0 -73 52 -128.5t124 -55.5q63 0 111.5 43.5t60.5 105.5l107 -61q-29 -91 -106.5 -150t-172.5 -59q-122 0 -207 91t-85 214zM305 1214q0 34 23.5 59t56.5 25t56.5 -25t23.5 -59 q0 -33 -23.5 -57t-56.5 -24t-56.5 24t-23.5 57z" />
<glyph unicode="&#xc0;" horiz-adv-x="1294" d="M66 0l569 1366l570 -1366h-134l-182 436h-508l-182 -436h-133zM432 561h406l-203 488zM499 1798h129l45 -327h-66z" />
<glyph unicode="&#xc1;" horiz-adv-x="1294" d="M66 0l569 1366l570 -1366h-134l-182 436h-508l-182 -436h-133zM432 561h406l-203 488zM607 1475l45 327h129l-109 -327h-65z" />
<glyph unicode="&#xc2;" horiz-adv-x="1294" d="M66 0l569 1366l570 -1366h-134l-182 436h-508l-182 -436h-133zM432 561h406l-203 488zM434 1475l108 309h187l108 -309h-49l-151 217l-152 -217h-51z" />
<glyph unicode="&#xc3;" horiz-adv-x="1294" d="M66 0l569 1366l570 -1366h-134l-182 436h-508l-182 -436h-133zM372 1475q9 90 44 153q47 84 124 84q34 0 98 -52t117 -52q77 0 118 104h47q-12 -88 -48 -152q-49 -85 -124 -85q-36 0 -94 52t-106 52q-91 0 -129 -104h-47zM432 561h406l-203 488z" />
<glyph unicode="&#xc4;" horiz-adv-x="1294" d="M66 0l569 1366l570 -1366h-134l-182 436h-508l-182 -436h-133zM432 561h406l-203 488zM457 1561q0 86 59 86q26 0 44.5 -25.5t18.5 -60.5q0 -36 -19 -62t-44 -26t-42 25.5t-17 62.5zM702 1561q0 86 60 86q26 0 44.5 -25.5t18.5 -60.5q0 -36 -19 -62t-44 -26t-42.5 25.5 t-17.5 62.5z" />
<glyph unicode="&#xc5;" horiz-adv-x="1294" d="M78 0l565 1350q-66 1 -113 56t-47 132q0 78 47.5 133t114.5 55q51 0 87 -65q54 -100 75 -121l2 -2h-2v-2q0 -75 -45.5 -129t-110.5 -57l566 -1350h-134l-182 432h-508l-182 -432h-133zM444 557h406l-203 483zM539 1538q0 -51 31 -86t75 -35t74.5 35t30.5 86t-30.5 88 t-74.5 37t-75 -37t-31 -88z" />
<glyph unicode="&#xc6;" horiz-adv-x="1905" d="M94 0l1075 1298h672v-127h-641v-557h522v-129h-522v-358h641v-127h-747v436h-514l-365 -436h-121zM686 563h406l4 494z" />
<glyph unicode="&#xc7;" horiz-adv-x="1163" d="M45 659q0 273 189 471.5t460 198.5q235 0 414 -151l-88 -91q-142 115 -326 115q-220 0 -373 -160.5t-153 -382.5q0 -221 152 -380q154 -162 374 -162q184 0 326 114l88 -88q-182 -153 -444 -153l-43 -90q151 -47 151 -156q0 -114 -75 -159q-56 -33 -181 -36v60h14 q164 0 164 139q0 57 -56 86q-48 26 -108 21l64 143q-241 51 -395 234t-154 427z" />
<glyph unicode="&#xc8;" horiz-adv-x="893" d="M64 0v1298h764v-127h-641v-557h522v-129h-522v-358h641v-127h-764zM294 1798h129l45 -327h-66z" />
<glyph unicode="&#xc9;" horiz-adv-x="893" d="M64 0v1298h764v-127h-641v-557h522v-129h-522v-358h641v-127h-764zM403 1475l45 327h129l-109 -327h-65z" />
<glyph unicode="&#xca;" horiz-adv-x="893" d="M64 0v1298h764v-127h-641v-557h522v-129h-522v-358h641v-127h-764zM230 1475l108 309h187l108 -309h-49l-151 217l-152 -217h-51z" />
<glyph unicode="&#xcb;" horiz-adv-x="893" d="M64 0v1298h764v-127h-641v-557h522v-129h-522v-358h641v-127h-764zM273 1561q0 86 59 86q26 0 44.5 -25.5t18.5 -60.5q0 -36 -19 -62t-44 -26t-42 25.5t-17 62.5zM518 1561q0 86 60 86q26 0 44.5 -25.5t18.5 -60.5q0 -36 -19 -62t-44 -26t-42.5 25.5t-17.5 62.5z" />
<glyph unicode="&#xcc;" horiz-adv-x="251" d="M-33 1798h129l45 -327h-66zM64 0v1298h123v-1298h-123z" />
<glyph unicode="&#xcd;" horiz-adv-x="251" d="M64 0v1298h123v-1298h-123zM95 1475l45 327h129l-109 -327h-65z" />
<glyph unicode="&#xce;" horiz-adv-x="251" d="M-78 1475l108 309h187l108 -309h-49l-151 217l-152 -217h-51zM64 0v1298h123v-1298h-123z" />
<glyph unicode="&#xcf;" horiz-adv-x="251" d="M-72 1561q0 86 59 86q26 0 44.5 -25.5t18.5 -60.5q0 -36 -19 -62t-44 -26t-42 25.5t-17 62.5zM64 0v1298h123v-1298h-123zM173 1561q0 86 60 86q26 0 44.5 -25.5t18.5 -60.5q0 -36 -19 -62t-44 -26t-42.5 25.5t-17.5 62.5z" />
<glyph unicode="&#xd0;" horiz-adv-x="1145" d="M66 569v117h122v612h242q275 0 463 -187.5t188 -461.5t-188.5 -461.5t-462.5 -187.5h-242v569h-122zM311 127h119q223 0 377 150t154 372q0 223 -154 372.5t-377 149.5h-119v-485h133v-117h-133v-442z" />
<glyph unicode="&#xd1;" horiz-adv-x="1142" d="M64 2v1315l891 -985v964h123v-1284l-891 985v-995h-123zM290 1475q9 90 44 153q47 84 124 84q34 0 98 -52t117 -52q77 0 118 104h47q-12 -88 -48 -152q-49 -85 -124 -85q-36 0 -94 52t-106 52q-91 0 -129 -104h-47z" />
<glyph unicode="&#xd2;" horiz-adv-x="1430" d="M33 651q0 280 190 478t459 198q270 0 461 -198t191 -478t-191 -478t-461 -198q-269 0 -459 198t-190 478zM156 651q0 -227 154 -388t372 -161q219 0 374 161t155 388q0 228 -155 388.5t-374 160.5q-218 0 -372 -160.5t-154 -388.5zM540 1798h129l45 -327h-66z" />
<glyph unicode="&#xd3;" horiz-adv-x="1430" d="M33 651q0 280 190 478t459 198q270 0 461 -198t191 -478t-191 -478t-461 -198q-269 0 -459 198t-190 478zM156 651q0 -227 154 -388t372 -161q219 0 374 161t155 388q0 228 -155 388.5t-374 160.5q-218 0 -372 -160.5t-154 -388.5zM648 1475l45 327h129l-109 -327h-65z " />
<glyph unicode="&#xd4;" horiz-adv-x="1430" d="M33 651q0 280 190 478t459 198q270 0 461 -198t191 -478t-191 -478t-461 -198q-269 0 -459 198t-190 478zM156 651q0 -227 154 -388t372 -161q219 0 374 161t155 388q0 228 -155 388.5t-374 160.5q-218 0 -372 -160.5t-154 -388.5zM496 1475l108 309h187l108 -309h-49 l-151 217l-152 -217h-51z" />
<glyph unicode="&#xd5;" horiz-adv-x="1430" d="M33 651q0 280 190 478t459 198q270 0 461 -198t191 -478t-191 -478t-461 -198q-269 0 -459 198t-190 478zM156 651q0 -227 154 -388t372 -161q219 0 374 161t155 388q0 228 -155 388.5t-374 160.5q-218 0 -372 -160.5t-154 -388.5zM392 1475q9 90 44 153q47 84 124 84 q34 0 98 -52t117 -52q77 0 118 104h47q-12 -88 -48 -152q-49 -85 -124 -85q-36 0 -94 52t-106 52q-91 0 -129 -104h-47z" />
<glyph unicode="&#xd6;" horiz-adv-x="1430" d="M33 651q0 280 190 478t459 198q270 0 461 -198t191 -478t-191 -478t-461 -198q-269 0 -459 198t-190 478zM156 651q0 -227 154 -388t372 -161q219 0 374 161t155 388q0 228 -155 388.5t-374 160.5q-218 0 -372 -160.5t-154 -388.5zM498 1561q0 86 59 86q26 0 44.5 -25.5 t18.5 -60.5q0 -36 -19 -62t-44 -26t-42 25.5t-17 62.5zM743 1561q0 86 60 86q26 0 44.5 -25.5t18.5 -60.5q0 -36 -19 -62t-44 -26t-42.5 25.5t-17.5 62.5z" />
<glyph unicode="&#xd7;" horiz-adv-x="650" d="M76 438l164 180l-164 181l86 94l164 -180l161 180l86 -94l-163 -181l163 -180l-86 -94l-161 180l-164 -180z" />
<glyph unicode="&#xd8;" horiz-adv-x="1430" d="M66 651q0 274 186 473q191 203 463 203q189 0 364 -115l64 84h125l-111 -149q209 -216 209 -496q0 -273 -188 -473q-191 -203 -463 -203q-171 0 -340 101l-56 -76h-122l98 135q-229 217 -229 516zM188 651q0 -234 179 -413l639 872q-148 90 -291 90q-221 0 -375 -165 q-152 -161 -152 -384zM449 176q138 -74 266 -74q221 0 376 165q152 162 152 384q0 214 -160 396z" />
<glyph unicode="&#xd9;" horiz-adv-x="1022" d="M51 463l3 835h122v-819q0 -151 89 -249q91 -103 241 -103q144 0 233 103q85 98 85 243v825h122l-2 -835q0 -213 -112 -336q-117 -127 -330 -127q-216 0 -333.5 123t-117.5 340zM335 1798h129l45 -327h-66z" />
<glyph unicode="&#xda;" horiz-adv-x="1022" d="M51 463l3 835h122v-819q0 -151 89 -249q91 -103 241 -103q144 0 233 103q85 98 85 243v825h122l-2 -835q0 -213 -112 -336q-117 -127 -330 -127q-216 0 -333.5 123t-117.5 340zM464 1475l45 327h129l-109 -327h-65z" />
<glyph unicode="&#xdb;" horiz-adv-x="1022" d="M51 463l3 835h122v-819q0 -151 89 -249q91 -103 241 -103q144 0 233 103q85 98 85 243v825h122l-2 -835q0 -213 -112 -336q-117 -127 -330 -127q-216 0 -333.5 123t-117.5 340zM291 1475l108 309h187l108 -309h-49l-151 217l-152 -217h-51z" />
<glyph unicode="&#xdc;" horiz-adv-x="1022" d="M51 463l3 835h122v-819q0 -151 89 -249q91 -103 241 -103q144 0 233 103q85 98 85 243v825h122l-2 -835q0 -213 -112 -336q-117 -127 -330 -127q-216 0 -333.5 123t-117.5 340zM314 1561q0 86 59 86q26 0 44.5 -25.5t18.5 -60.5q0 -36 -19 -62t-44 -26t-42 25.5t-17 62.5 zM559 1561q0 86 60 86q26 0 44.5 -25.5t18.5 -60.5q0 -36 -19 -62t-44 -26t-42.5 25.5t-17.5 62.5z" />
<glyph unicode="&#xdd;" horiz-adv-x="1180" d="M76 1298h148l354 -538l356 538h146l-439 -669v-629h-123v631zM542 1473l45 327h129l-109 -327h-65z" />
<glyph unicode="&#xde;" horiz-adv-x="904" d="M66 0v1298h122v-208h250q166 0 284 -123.5t118 -296.5t-118 -294.5t-284 -121.5h-250v-254h-122zM188 371h250q120 0 205.5 87t85.5 212q0 124 -85.5 213.5t-205.5 89.5h-250v-602z" />
<glyph unicode="&#xdf;" horiz-adv-x="974" d="M63 475v98h72v299q0 160 103 264q107 109 282 109q140 0 227 -93q84 -91 84 -228q0 -125 -122 -265q200 -146 200 -340q0 -164 -114 -268t-287 -104h-86v98h86q127 0 212 67q95 75 95 207t-94 210q-86 71 -213 71h-86v100l98 -2q91 -2 154 65.5t63 160.5q0 91 -65.5 157 t-151.5 66q-103 0 -176 -52q-102 -71 -102 -223v-868h-107v471h-72z" />
<glyph unicode="&#xe0;" d="M33 373q0 149 98 259q101 116 248 116q125 0 250 -156v156h100v-748h-100v164q-111 -164 -250 -164q-147 0 -248 114q-98 110 -98 259zM133 373q0 -106 71 -185t175 -79q105 0 179 80q71 78 71 184q0 105 -71 184q-74 82 -179 82q-104 0 -176 -82q-70 -78 -70 -184z M235 1291h129l45 -327h-66z" />
<glyph unicode="&#xe1;" d="M33 373q0 149 98 259q101 116 248 116q125 0 250 -156v156h100v-748h-100v164q-111 -164 -250 -164q-147 0 -248 114q-98 110 -98 259zM133 373q0 -106 71 -185t175 -79q105 0 179 80q71 78 71 184q0 105 -71 184q-74 82 -179 82q-104 0 -176 -82q-70 -78 -70 -184z M362 965l45 327h129l-109 -327h-65z" />
<glyph unicode="&#xe2;" d="M33 373q0 149 98 259q101 116 248 116q125 0 250 -156v156h100v-748h-100v164q-111 -164 -250 -164q-147 0 -248 114q-98 110 -98 259zM133 373q0 -106 71 -185t175 -79q105 0 179 80q71 78 71 184q0 105 -71 184q-74 82 -179 82q-104 0 -176 -82q-70 -78 -70 -184z M189 989l108 309h187l108 -309h-49l-151 217l-152 -217h-51z" />
<glyph unicode="&#xe3;" d="M33 373q0 149 98 259q101 116 248 116q125 0 250 -156v156h100v-748h-100v164q-111 -164 -250 -164q-147 0 -248 114q-98 110 -98 259zM133 373q0 -106 71 -185t175 -79q105 0 179 80q71 78 71 184q0 105 -71 184q-74 82 -179 82q-104 0 -176 -82q-70 -78 -70 -184z M142 968q9 90 44 153q47 84 124 84q34 0 98 -52t117 -52q77 0 118 104h47q-12 -88 -48 -152q-49 -85 -124 -85q-36 0 -94 52t-106 52q-91 0 -129 -104h-47z" />
<glyph unicode="&#xe4;" d="M33 373q0 149 98 259q101 116 248 116q125 0 250 -156v156h100v-748h-100v164q-111 -164 -250 -164q-147 0 -248 114q-98 110 -98 259zM133 373q0 -106 71 -185t175 -79q105 0 179 80q71 78 71 184q0 105 -71 184q-74 82 -179 82q-104 0 -176 -82q-70 -78 -70 -184z M212 1069q0 86 59 86q26 0 44.5 -25.5t18.5 -60.5q0 -36 -19 -62t-44 -26t-42 25.5t-17 62.5zM457 1069q0 86 60 86q26 0 44.5 -25.5t18.5 -60.5q0 -36 -19 -62t-44 -26t-42.5 25.5t-17.5 62.5z" />
<glyph unicode="&#xe5;" d="M33 373q0 149 98 259q101 116 248 116q125 0 250 -156v156h100v-748h-100v164q-111 -164 -250 -164q-147 0 -248 114q-98 110 -98 259zM133 373q0 -106 71 -185t175 -79q105 0 179 80q71 78 71 184q0 105 -71 184q-74 82 -179 82q-104 0 -176 -82q-70 -78 -70 -184z M225 1137q0 78 47.5 133t113.5 55q67 0 115.5 -55.5t48.5 -132.5t-48.5 -132.5t-115.5 -55.5q-66 0 -113.5 55t-47.5 133zM280 1137q0 -51 31 -86t75 -35t74.5 35t30.5 86t-30.5 88t-74.5 37q-43 0 -74.5 -37t-31.5 -88z" />
<glyph unicode="&#xe6;" horiz-adv-x="1452" d="M66 373q0 149 97 259q102 116 249 116q125 0 250 -156v156h100v-175q144 175 289 175q137 0 240.5 -106t94.5 -241l-4 -61h-571q23 -97 81 -160q66 -71 159 -71q163 0 241 110l74 -63q-120 -156 -315 -156q-145 0 -289 174v-174h-100v164q-111 -164 -250 -164 q-147 0 -249 114q-97 110 -97 259zM166 373q0 -106 70.5 -185t175.5 -79t177.5 79t72.5 185q0 105 -72.5 185.5t-177.5 80.5t-177 -82q-69 -78 -69 -184zM811 416h479q-62 223 -239 223q-178 0 -240 -223z" />
<glyph unicode="&#xe7;" horiz-adv-x="714" d="M45 383q0 147 99 254q102 111 247 111q164 0 273 -91l-52 -94q-88 80 -221 80q-103 0 -174.5 -78t-71.5 -182t71.5 -181t174.5 -77q121 0 254 70v-99q-109 -66 -237 -76l-52 -116q150 -47 150 -156q0 -116 -74 -161q-56 -35 -182 -38v62l33 -2q62 -4 102.5 37.5 t40.5 105.5q0 107 -164 107l74 166q-129 34 -208 129q-83 98 -83 229z" />
<glyph unicode="&#xe8;" horiz-adv-x="757" d="M33 373q0 146 92 257q98 118 242 118q146 0 247 -118q98 -114 89 -257l-2 -33h-574q23 -97 81 -159q67 -72 159 -72q163 0 242 110l73 -63q-119 -156 -315 -156q-144 0 -241 116q-93 110 -93 257zM127 416h479q-26 94 -83 154q-67 69 -156 69q-90 0 -156 -69 q-58 -60 -84 -154zM235 1291h129l45 -327h-66z" />
<glyph unicode="&#xe9;" horiz-adv-x="757" d="M33 373q0 146 92 257q98 118 242 118q146 0 247 -118q98 -114 89 -257l-2 -33h-574q23 -97 81 -159q67 -72 159 -72q163 0 242 110l73 -63q-119 -156 -315 -156q-144 0 -241 116q-93 110 -93 257zM127 416h479q-26 94 -83 154q-67 69 -156 69q-90 0 -156 -69 q-58 -60 -84 -154zM362 965l45 327h129l-109 -327h-65z" />
<glyph unicode="&#xea;" horiz-adv-x="757" d="M33 373q0 146 92 257q98 118 242 118q146 0 247 -118q98 -114 89 -257l-2 -33h-574q23 -97 81 -159q67 -72 159 -72q163 0 242 110l73 -63q-119 -156 -315 -156q-144 0 -241 116q-93 110 -93 257zM127 416h479q-26 94 -83 154q-67 69 -156 69q-90 0 -156 -69 q-58 -60 -84 -154zM189 989l108 309h187l108 -309h-49l-151 217l-152 -217h-51z" />
<glyph unicode="&#xeb;" horiz-adv-x="757" d="M33 373q0 146 92 257q98 118 242 118q146 0 247 -118q98 -114 89 -257l-2 -33h-574q23 -97 81 -159q67 -72 159 -72q163 0 242 110l73 -63q-119 -156 -315 -156q-144 0 -241 116q-93 110 -93 257zM127 416h479q-26 94 -83 154q-67 69 -156 69q-90 0 -156 -69 q-58 -60 -84 -154zM212 1049q0 86 59 86q26 0 44.5 -25.5t18.5 -60.5q0 -36 -19 -62t-44 -26t-42 25.5t-17 62.5zM457 1049q0 86 60 86q26 0 44.5 -25.5t18.5 -60.5q0 -36 -19 -62t-44 -26t-42.5 25.5t-17.5 62.5z" />
<glyph unicode="&#xec;" horiz-adv-x="371" d="M74 1291h129l45 -327h-66zM179 0v748h106v-748h-106z" />
<glyph unicode="&#xed;" horiz-adv-x="356" d="M64 0v748h106v-748h-106zM85 965l45 327h129l-109 -327h-65z" />
<glyph unicode="&#xee;" horiz-adv-x="579" d="M76 989l108 309h187l108 -309h-49l-151 217l-152 -217h-51zM228 0v748h106v-748h-106z" />
<glyph unicode="&#xef;" horiz-adv-x="517" d="M64 1049q0 86 59 86q26 0 44.5 -25.5t18.5 -60.5q0 -36 -19 -62t-44 -26t-42 25.5t-17 62.5zM193 0v748h106v-748h-106zM309 1049q0 86 60 86q26 0 44.5 -25.5t18.5 -60.5q0 -36 -19 -62t-44 -26t-42.5 25.5t-17.5 62.5z" />
<glyph unicode="&#xf0;" horiz-adv-x="905" d="M66 412q0 165 109 287q114 126 278 126q56 0 188 -41q-43 102 -96 207l-107 -84l-67 97l116 88l-51 79l84 64l53 -80l105 82l67 -96l-112 -86q209 -390 209 -643q0 -168 -110 -288q-113 -124 -279 -124q-164 0 -277 125q-110 121 -110 287zM170 412q0 -121 82 -210 t201 -89q118 0 202 90q80 89 80 209t-80 208q-83 91 -202 91t-201 -89.5t-82 -209.5z" />
<glyph unicode="&#xf1;" horiz-adv-x="792" d="M64 0v748h100v-211q100 211 307 211q256 0 256 -291v-457h-100v430q0 219 -203 219q-101 0 -180.5 -82.5t-79.5 -191.5v-375h-100zM122 968q9 90 44 153q47 84 124 84q34 0 98 -52t117 -52q77 0 118 104h47q-12 -88 -48 -152q-49 -85 -124 -85q-36 0 -94 52t-106 52 q-91 0 -129 -104h-47z" />
<glyph unicode="&#xf2;" horiz-adv-x="784" d="M33 373q0 154 101.5 264.5t244.5 110.5q144 0 247 -110.5t103 -264.5t-103 -263.5t-247 -109.5q-143 0 -244.5 109.5t-101.5 263.5zM133 373q0 -110 72 -187t174 -77t176 77t74 187q0 109 -74 187.5t-176 78.5t-174 -78.5t-72 -187.5zM235 1291h129l45 -327h-66z" />
<glyph unicode="&#xf3;" horiz-adv-x="784" d="M33 373q0 154 101.5 264.5t244.5 110.5q144 0 247 -110.5t103 -264.5t-103 -263.5t-247 -109.5q-143 0 -244.5 109.5t-101.5 263.5zM133 373q0 -110 72 -187t174 -77t176 77t74 187q0 109 -74 187.5t-176 78.5t-174 -78.5t-72 -187.5zM362 965l45 327h129l-109 -327h-65z " />
<glyph unicode="&#xf4;" horiz-adv-x="784" d="M33 373q0 154 101.5 264.5t244.5 110.5q144 0 247 -110.5t103 -264.5t-103 -263.5t-247 -109.5q-143 0 -244.5 109.5t-101.5 263.5zM133 373q0 -110 72 -187t174 -77t176 77t74 187q0 109 -74 187.5t-176 78.5t-174 -78.5t-72 -187.5zM189 989l108 309h187l108 -309h-49 l-151 217l-152 -217h-51z" />
<glyph unicode="&#xf5;" horiz-adv-x="784" d="M33 373q0 154 101.5 264.5t244.5 110.5q144 0 247 -110.5t103 -264.5t-103 -263.5t-247 -109.5q-143 0 -244.5 109.5t-101.5 263.5zM122 968q9 90 44 153q47 84 124 84q34 0 98 -52t117 -52q77 0 118 104h47q-12 -88 -48 -152q-49 -85 -124 -85q-36 0 -94 52t-106 52 q-91 0 -129 -104h-47zM133 373q0 -110 72 -187t174 -77t176 77t74 187q0 109 -74 187.5t-176 78.5t-174 -78.5t-72 -187.5z" />
<glyph unicode="&#xf6;" horiz-adv-x="784" d="M33 373q0 154 101.5 264.5t244.5 110.5q144 0 247 -110.5t103 -264.5t-103 -263.5t-247 -109.5q-143 0 -244.5 109.5t-101.5 263.5zM133 373q0 -110 72 -187t174 -77t176 77t74 187q0 109 -74 187.5t-176 78.5t-174 -78.5t-72 -187.5zM212 1049q0 86 59 86 q26 0 44.5 -25.5t18.5 -60.5q0 -36 -19 -62t-44 -26t-42 25.5t-17 62.5zM457 1049q0 86 60 86q26 0 44.5 -25.5t18.5 -60.5q0 -36 -19 -62t-44 -26t-42.5 25.5t-17.5 62.5z" />
<glyph unicode="&#xf7;" horiz-adv-x="713" d="M66 569v131h583v-131h-583zM281 375q0 65 61 65t61 -65q0 -66 -61 -66t-61 66zM281 893q0 65 61 65t61 -65q0 -66 -61 -66t-61 66z" />
<glyph unicode="&#xf8;" horiz-adv-x="827" d="M66 373q0 148 97 259q102 116 249 116q78 0 170 -48l28 45h127l-75 -110q100 -123 100 -262q0 -148 -100 -259q-104 -114 -250 -114q-77 0 -166 45l-29 -45h-125l76 109q-102 122 -102 264zM166 373q0 -80 63 -180l291 423q-66 23 -108 23q-105 0 -175.5 -80.5 t-70.5 -185.5zM307 131q70 -22 105 -22q104 0 177 79t73 185q0 76 -62 178z" />
<glyph unicode="&#xf9;" horiz-adv-x="734" d="M54 373v375h100v-375q0 -110 44 -180q54 -84 157 -84t157 84q45 71 45 180v375h101v-375q0 -151 -75 -255q-83 -118 -228 -118t-228 118q-73 103 -73 255zM214 1291h129l45 -327h-66z" />
<glyph unicode="&#xfa;" horiz-adv-x="734" d="M54 373v375h100v-375q0 -110 44 -180q54 -84 157 -84t157 84q45 71 45 180v375h101v-375q0 -151 -75 -255q-83 -118 -228 -118t-228 118q-73 103 -73 255zM321 965l45 327h129l-109 -327h-65z" />
<glyph unicode="&#xfb;" horiz-adv-x="734" d="M54 373v375h100v-375q0 -110 44 -180q54 -84 157 -84t157 84q45 71 45 180v375h101v-375q0 -151 -75 -255q-83 -118 -228 -118t-228 118q-73 103 -73 255zM148 989l108 309h187l108 -309h-49l-151 217l-152 -217h-51z" />
<glyph unicode="&#xfc;" horiz-adv-x="734" d="M54 373v375h100v-375q0 -110 44 -180q54 -84 157 -84t157 84q45 71 45 180v375h101v-375q0 -151 -75 -255q-83 -118 -228 -118t-228 118q-73 103 -73 255zM171 1049q0 86 59 86q26 0 44.5 -25.5t18.5 -60.5q0 -36 -19 -62t-44 -26t-42 25.5t-17 62.5zM416 1049 q0 86 60 86q26 0 44.5 -25.5t18.5 -60.5q0 -36 -19 -62t-44 -26t-42.5 25.5t-17.5 62.5z" />
<glyph unicode="&#xfd;" horiz-adv-x="887" d="M29 748h115l247 -482l246 482h115l-541 -1049h-117l240 455zM403 965l45 327h129l-109 -327h-65z" />
<glyph unicode="&#xfe;" horiz-adv-x="904" d="M66 -244v1299h122v-209h250q166 0 284 -122.5t118 -295.5t-118 -295.5t-284 -122.5h-250v-254h-122zM188 127h250q120 0 205.5 88.5t85.5 212.5q0 125 -85.5 213t-205.5 88h-250v-602z" />
<glyph unicode="&#xff;" horiz-adv-x="887" d="M29 748h115l247 -482l246 482h115l-541 -1049h-117l240 455zM253 1069q0 86 59 86q26 0 44.5 -25.5t18.5 -60.5q0 -36 -19 -62t-44 -26t-42 25.5t-17 62.5zM498 1069q0 86 60 86q26 0 44.5 -25.5t18.5 -60.5q0 -36 -19 -62t-44 -26t-42.5 25.5t-17.5 62.5z" />
<glyph unicode="&#x152;" horiz-adv-x="2098" d="M66 641q0 280 189.5 478t459.5 198q315 0 555 -313v294h764v-129h-641v-555h522v-127h-522v-358h641v-127h-764v279q-242 -316 -555 -316q-270 0 -459.5 198t-189.5 478zM188 641q0 -228 154 -388.5t373 -160.5t373.5 161t154.5 388t-154.5 388t-373.5 161t-373 -160.5 t-154 -388.5z" />
<glyph unicode="&#x153;" horiz-adv-x="1419" d="M66 373q0 154 101.5 264.5t244.5 110.5q183 0 309 -197q121 197 297 197q134 0 236 -101t102 -236q0 -18 -2 -36l-4 -35h-572q26 -109 90.5 -170t149.5 -61q163 0 242 110l73 -63q-120 -156 -315 -156q-177 0 -297 195q-124 -195 -309 -195q-144 0 -245 109.5t-101 263.5 zM166 373q0 -110 72 -187t174 -77t176 77t74 187q0 109 -74 187.5t-176 78.5t-174 -78.5t-72 -187.5zM778 416h479q-62 223 -239 223q-178 0 -240 -223z" />
<glyph unicode="&#x178;" horiz-adv-x="1180" d="M76 1298h148l354 -538l356 538h146l-439 -669v-629h-123v631zM396 1561q0 86 59 86q26 0 44.5 -25.5t18.5 -60.5q0 -36 -19 -62t-44 -26t-42 25.5t-17 62.5zM641 1561q0 86 60 86q26 0 44.5 -25.5t18.5 -60.5q0 -36 -19 -62t-44 -26t-42.5 25.5t-17.5 62.5z" />
<glyph unicode="&#x2c6;" horiz-adv-x="560" d="M78 989l108 309h187l108 -309h-49l-151 217l-152 -217h-51z" />
<glyph unicode="&#x2dc;" horiz-adv-x="684" d="M68 1061q9 90 44 153q47 84 124 84q34 0 98 -52t117 -52q77 0 118 104h47q-12 -88 -48 -152q-49 -85 -124 -85q-36 0 -94 52t-106 52q-91 0 -129 -104h-47z" />
<glyph unicode="&#x2000;" horiz-adv-x="901" />
<glyph unicode="&#x2001;" horiz-adv-x="1802" />
<glyph unicode="&#x2002;" horiz-adv-x="901" />
<glyph unicode="&#x2003;" horiz-adv-x="1802" />
<glyph unicode="&#x2004;" horiz-adv-x="600" />
<glyph unicode="&#x2005;" horiz-adv-x="450" />
<glyph unicode="&#x2006;" horiz-adv-x="300" />
<glyph unicode="&#x2007;" horiz-adv-x="300" />
<glyph unicode="&#x2008;" horiz-adv-x="225" />
<glyph unicode="&#x2009;" horiz-adv-x="360" />
<glyph unicode="&#x200a;" horiz-adv-x="100" />
<glyph unicode="&#x2010;" horiz-adv-x="713" d="M66 567v123h583v-123h-583z" />
<glyph unicode="&#x2011;" horiz-adv-x="713" d="M66 567v123h583v-123h-583z" />
<glyph unicode="&#x2012;" horiz-adv-x="713" d="M66 567v123h583v-123h-583z" />
<glyph unicode="&#x2013;" horiz-adv-x="509" d="M63 567v123h381v-123h-381z" />
<glyph unicode="&#x2014;" horiz-adv-x="918" d="M66 567v123h788v-123h-788z" />
<glyph unicode="&#x2018;" horiz-adv-x="276" d="M74 924v170l104 188l25 -27l-23 -149v-182h-106z" />
<glyph unicode="&#x2019;" horiz-adv-x="276" d="M74 965l24 151v182h107v-170l-107 -188z" />
<glyph unicode="&#x201a;" horiz-adv-x="260" d="M66 -154l24 152v182h107v-170l-107 -188z" />
<glyph unicode="&#x201c;" horiz-adv-x="526" d="M74 924v170l104 188l25 -27l-23 -149v-182h-106zM324 924v170l104 188l25 -27l-23 -149v-182h-106z" />
<glyph unicode="&#x201d;" horiz-adv-x="526" d="M74 965l24 151v182h107v-170l-107 -188zM324 965l22 151v182h107v-170l-105 -188z" />
<glyph unicode="&#x201e;" horiz-adv-x="509" d="M66 -154l24 152v182h107v-170l-107 -188zM315 -154l23 152v182h106v-170l-104 -188z" />
<glyph unicode="&#x2022;" horiz-adv-x="349" d="M66 653q0 52 28 91q31 44 80 44t82 -44q29 -40 29 -91t-29 -91q-33 -44 -82 -44t-80 44q-28 40 -28 91z" />
<glyph unicode="&#x2026;" horiz-adv-x="947" d="M66 86q0 37 17 62.5t42 25.5t44 -26t19 -62q0 -35 -18.5 -60.5t-44.5 -25.5q-59 0 -59 86zM414 86q0 37 17 62.5t42 25.5q26 0 45 -26t19 -62q0 -35 -19 -60.5t-45 -25.5q-59 0 -59 86zM762 86q0 37 17.5 62.5t41.5 25.5q26 0 45 -26t19 -62q0 -35 -19 -60.5t-45 -25.5 q-59 0 -59 86z" />
<glyph unicode="&#x202f;" horiz-adv-x="360" />
<glyph unicode="&#x2039;" horiz-adv-x="513" d="M88 379l361 239v-124l-189 -115l189 -111v-125z" />
<glyph unicode="&#x203a;" horiz-adv-x="513" d="M66 143v125l186 111l-186 115v124l358 -239z" />
<glyph unicode="&#x205f;" horiz-adv-x="450" />
<glyph unicode="&#x2122;" horiz-adv-x="1041" d="M66 1051v55h350v-55h-148v-465h-55v465h-147zM496 586l36 495l205 -272l201 264l35 -487h-53l-25 323l-158 -186l-162 195l-24 -332h-55z" />
<glyph unicode="&#xe000;" horiz-adv-x="750" d="M0 0v750h750v-750h-750z" />
</font>
</defs>
</svg>
