<?xml version="1.0" standalone="no"?>
<!DOCTYPE svg PUBLIC "-//W3C//DTD SVG 1.1//EN" "http://www.w3.org/Graphics/SVG/1.1/DTD/svg11.dtd" >
<svg xmlns="http://www.w3.org/2000/svg">
<metadata>
This is a custom SVG webfont generated by Font Squirrel.
Copyright   :  1990 2002 Adobe Systems Incorporated All rights reserved
Designer    : Linotype Staff
Foundry URL : httpwwwadobecomtype
</metadata>
<defs>
<font id="HelveticaNeueLTStd47LtCnOb" horiz-adv-x="854" >
<font-face units-per-em="2048" ascent="1462" descent="-586" />
<missing-glyph horiz-adv-x="481" />
<glyph unicode="fi" d="M160 0l205 965h-146l23 100h145l27 127q29 129 87 193.5t199 64.5q43 0 76 -6l-22 -101q-23 6 -56 7q-68 0 -106.5 -35t-56.5 -123l-27 -127h188l-22 -100h-189l-204 -965h-121zM610 0l228 1065h118l-225 -1065h-121zM870 1229l45 205h121l-45 -205h-121z" />
<glyph unicode="fl" d="M160 0l205 965h-146l23 100h145l27 127q29 129 87 193.5t199 64.5q43 0 76 -6l-22 -101q-23 6 -56 7q-68 0 -106.5 -35t-56.5 -123l-27 -127h188l-22 -100h-189l-204 -965h-121zM610 0l305 1434h121l-305 -1434h-121z" />
<glyph unicode=" "  horiz-adv-x="481" />
<glyph unicode="&#x09;" horiz-adv-x="481" />
<glyph unicode="&#xa0;" horiz-adv-x="481" />
<glyph unicode="!" horiz-adv-x="481" d="M172 0l45 205h135l-43 -205h-137zM276 373l105 606l96 455h137l-96 -455l-153 -606h-89z" />
<glyph unicode="&#x22;" horiz-adv-x="704" d="M346 952l103 482h118l-102 -482h-119zM647 952l103 482h118l-102 -482h-119z" />
<glyph unicode="#" horiz-adv-x="962" d="M102 453l19 90h231l109 311h-219l16 90h234l157 453h101l-158 -453h246l155 453h101l-156 -453h219l-16 -90h-234l-108 -311h221l-19 -90h-233l-156 -453h-100l156 453h-244l-158 -453h-100l158 453h-222zM453 543h245l109 311h-246z" />
<glyph unicode="$" horiz-adv-x="962" d="M141 391l11 41h127l-13 -53q-9 -45 -9 -85q0 -72 32 -123q49 -79 168 -87l125 590l-62 21q-27 9 -59.5 23.5t-54 30t-45 37t-37 47t-22.5 58.5q-8 29 -8 65q0 42 11 97q35 156 149.5 255t286.5 113l31 142h88l-31 -142q272 -22 273 -261q0 -54 -15 -120h-129q12 52 12 95 q0 158 -163 178l-117 -549q43 -14 57.5 -19.5l54.5 -21.5t54 -26l45 -28q31 -19 42 -37l29 -45q17 -28 20 -55.5t3 -65.5t-8 -81q-39 -184 -162 -288.5t-303 -121.5l-35 -165h-88l35 165q-308 18 -307 287q-1 58 14 129zM438 1063q-8 -37 -8 -69q0 -60 31 -100 q47 -60 147 -99l111 518q-111 -12 -187 -81t-94 -169zM547 84q117 12 198.5 84t108.5 197q8 37 8 68q0 65 -35 106q-51 59 -163 106z" />
<glyph unicode="%" horiz-adv-x="1447" d="M330 1053q43 207 122.5 287.5t207.5 80.5t174 -81q23 -41 23 -115q0 -71 -21 -172q-43 -207 -123 -289t-209 -82t-173 81q-22 41 -23 114q1 73 22 176zM358 -25l924 1446h100l-923 -1446h-101zM438 1053q-17 -82 -17 -141q0 -142 102 -142q144 0 204 283q17 82 17 139 q0 141 -102 141q-145 1 -204 -280zM910 56q-22 40 -21 112q0 73 22 178q43 207 123 288t208 81t172 -81q23 -42 23 -118q0 -70 -20 -170q-45 -207 -125 -289t-209 -82t-173 81zM1020 346q-18 -84 -18 -143q0 -140 102 -140q145 0 205 283q16 80 16 137q0 144 -103 144 q-145 0 -202 -281z" />
<glyph unicode="&#x26;" horiz-adv-x="1077" d="M121 354q43 211 285 371l137 90q-61 111 -83 193q-13 49 -13 96q0 32 6 63q27 125 126 196t224 71t184 -73q42 -51 42 -127q0 -31 -7 -67q-23 -96 -95.5 -181t-236.5 -187l217 -434q74 121 109 272h121q-41 -193 -181 -373l134 -264h-136l-92 174q-172 -199 -422 -199 q-182 0 -269 109q-61 76 -61 179q0 43 11 91zM250 369q-7 -33 -7 -64q0 -81 49 -140q67 -81 189 -81q88 0 184.5 50t155.5 130l-235 471q-164 -100 -240 -187t-96 -179zM573 1171q-4 -19 -3 -41q0 -100 77 -249q223 147 254 290q4 20 4 38q0 45 -25 78q-36 46 -107 46 t-127.5 -45t-72.5 -117z" />
<glyph unicode="'" horiz-adv-x="481" d="M383 952l102 482h121l-102 -482h-121z" />
<glyph unicode="(" horiz-adv-x="444" d="M221 532q100 465 459 902h86q-315 -403 -424 -902q-44 -207 -44 -398q0 -267 85 -503h-86q-111 276 -111 568q0 164 35 333z" />
<glyph unicode=")" horiz-adv-x="444" d="M-94 -369q319 406 424 901q45 207 44 399q0 266 -85 503h86q112 -278 112 -568q0 -165 -36 -334q-98 -465 -459 -901h-86z" />
<glyph unicode="*" horiz-adv-x="669" d="M305 1194l45 84l199 -68l47 224h88l-47 -224l225 68l8 -84l-223 -68l92 -180l-84 -53l-92 180l-168 -180l-61 53l168 180z" />
<glyph unicode="+" horiz-adv-x="1204" d="M190 457l23 100h457l98 459h100l-98 -459h459l-23 -100h-456l-99 -457h-98l96 457h-459z" />
<glyph unicode="," horiz-adv-x="481" d="M102 -276l17 79q78 43 112 197h-59l45 205h135l-43 -205q-49 -223 -207 -276z" />
<glyph unicode="-" horiz-adv-x="667" d="M227 516l23 109h434l-22 -109h-435z" />
<glyph unicode="." horiz-adv-x="481" d="M172 0l45 205h135l-43 -205h-137z" />
<glyph unicode="/" horiz-adv-x="557" d="M-27 -25l805 1481h109l-805 -1481h-109z" />
<glyph unicode="0" horiz-adv-x="962" d="M182 325q6 161 49 373q35 168 78 292t107.5 225.5t156 153.5t209.5 52q156 0 228 -94q67 -88 67 -234q0 -10 -1 -21q-5 -161 -46 -374q-37 -168 -80 -291.5t-108.5 -225t-156.5 -154t-210 -52.5q-154 0 -226 95q-67 87 -67 230v25zM319 216q33 -140 179.5 -140t238.5 141 t164 481q50 237 50 378q0 62 -10 105q-32 140 -178.5 140t-238.5 -141.5t-166 -481.5q-49 -235 -49 -374q0 -64 10 -108z" />
<glyph unicode="1" horiz-adv-x="962" d="M367 1087l20 89q342 2 404 245h92l-301 -1421h-121l231 1087h-325z" />
<glyph unicode="2" horiz-adv-x="962" d="M88 0q37 168 136.5 294t277.5 255l180 127q127 90 189.5 171t82.5 183q10 48 10 89q0 75 -34 125q-53 77 -166 77q-250 0 -334 -346h-129q49 211 174 328.5t322 117.5q158 0 242 -97q57 -66 58 -174q0 -52 -14 -114q-31 -133 -101.5 -230t-227.5 -208l-181 -127 q-139 -98 -213.5 -177t-111.5 -185h649l-23 -109h-786z" />
<glyph unicode="3" horiz-adv-x="962" d="M156 379h129q-10 -47 -11 -88q0 -74 33 -129q51 -86 182 -86q121 0 217.5 81t133.5 246q8 42 8 79q0 81 -41 132q-59 74 -191 74h-94l23 100h65q129 0 214 70t111 196q9 46 9 84q0 68 -29 112q-45 71 -159 71q-111 0 -196 -75t-116 -218h-129q37 182 157 287.5t304 105.5 q166 0 245 -94q55 -65 55 -164q0 -44 -11 -94q-23 -119 -100.5 -206t-196.5 -113v-5q121 -18 174 -111q35 -61 35 -138q0 -42 -10 -88q-41 -197 -172 -315t-328 -118q-184 0 -264 104q-57 73 -57 193q0 50 10 107z" />
<glyph unicode="4" horiz-adv-x="962" d="M143 365l23 120l747 936h121l-200 -948h165l-22 -108h-166l-78 -365h-121l78 365h-547zM272 473h441l157 744h-4z" />
<glyph unicode="5" horiz-adv-x="962" d="M158 362h129q-9 -41 -9 -78q0 -72 34 -126q52 -82 177 -82q131 0 227.5 105.5t137.5 301.5q14 65 14 119q0 78 -29 135q-50 96 -188 97q-186 0 -278 -166h-121l237 729h623l-25 -109h-526l-166 -495l4 -5q106 145 306 146q170 0 246 -121q47 -74 47 -188q0 -73 -19 -162 q-45 -219 -184.5 -353.5t-341.5 -134.5q-168 0 -250 103q-56 71 -57 179q1 48 12 105z" />
<glyph unicode="6" horiz-adv-x="962" d="M196 151q-25 74 -25 176q0 140 46 332q80 379 215 570.5t379 191.5q164 0 236 -91q50 -64 50 -157q0 -40 -10 -86h-129q5 31 6 59q0 67 -32 111q-45 63 -148 64q-150 0 -254 -150.5t-182 -496.5l4 -4q123 233 355 233q180 0 251 -121q44 -74 44 -178q0 -66 -17 -143 q-45 -213 -175 -349.5t-325 -136.5q-231 1 -289 176zM311 264q4 -82 55.5 -135t143.5 -53q137 0 223 104.5t119 259.5q14 67 14 126q0 74 -23 132q-42 104 -178.5 104.5t-223.5 -104t-117 -258.5q-13 -75 -14 -143q0 -17 1 -33z" />
<glyph unicode="7" horiz-adv-x="962" d="M236 0q78 295 306 665.5t492 622.5h-680l25 109h799l-23 -109q-274 -266 -484 -622.5t-300 -665.5h-135z" />
<glyph unicode="8" horiz-adv-x="962" d="M168 401q29 135 117 237.5t215 115.5v2q-94 27 -132 116q-24 57 -24 120q0 37 8 77q35 170 153 261t277 91q164 0 242 -90q53 -61 53 -160q0 -47 -12 -102q-20 -109 -96 -198t-185 -115v-2q121 -12 166 -114q28 -62 28 -137q0 -48 -11 -102q-41 -199 -175.5 -312.5 t-316.5 -113.5q-180 0 -264 114q-56 76 -56 191q0 56 13 121zM293 391q-10 -49 -10 -91q0 -76 32 -134q51 -90 182.5 -90t220.5 90t118 225q10 49 10 93q0 77 -33 134q-51 90 -181 90.5t-219 -90t-120 -227.5zM479 1063q-9 -40 -8 -75q0 -64 29 -109q45 -70 153 -70 q113 0 186.5 69.5t98.5 184.5q8 41 8 76q0 67 -28 112q-43 70 -155 70t-185.5 -69.5t-98.5 -188.5z" />
<glyph unicode="9" horiz-adv-x="962" d="M172 309h129q-5 -31 -5 -58q0 -67 32 -112q45 -63 147 -63q152 0 256.5 150.5t181.5 496.5l-4 4q-125 -233 -356 -233q-180 0 -251 120q-44 75 -44 181q0 65 16 141q47 215 175.5 350t322.5 135q231 0 292 -175q26 -75 26 -180q0 -139 -46 -329q-82 -377 -218 -569.5 t-377 -192.5q-166 0 -236 92q-49 65 -49 159q0 39 8 83zM408 956q-14 -67 -15 -125q0 -74 24 -133q42 -104 179 -104t223 104.5t119 257.5q13 77 13 145q0 17 -1 33q-4 81 -55 134t-143 53q-137 0 -223 -104.5t-121 -260.5z" />
<glyph unicode=":" horiz-adv-x="481" d="M172 0l45 205h135l-43 -205h-137zM344 801l41 205h137l-43 -205h-135z" />
<glyph unicode=";" horiz-adv-x="481" d="M102 -276l17 79q78 43 112 197h-59l45 205h135l-43 -205q-49 -223 -207 -276zM344 801l41 205h137l-43 -205h-135z" />
<glyph unicode="&#x3c;" horiz-adv-x="1204" d="M190 453l25 108l1114 471l-22 -108l-983 -416l806 -416l-24 -108z" />
<glyph unicode="=" horiz-adv-x="1204" d="M152 262l18 100h1016l-21 -100h-1013zM233 651l21 103h1016l-21 -103h-1016z" />
<glyph unicode="&#x3e;" horiz-adv-x="1204" d="M90 -16l25 108l983 416l-807 416l22 108l918 -471l-25 -108z" />
<glyph unicode="?" d="M264 1020q43 197 165 316.5t306 119.5q166 0 243 -96q54 -67 54 -165q0 -42 -10 -89q-39 -176 -197 -315l-106 -93q-76 -66 -114 -124t-56 -146l-12 -57h-121l16 71q20 111 62.5 174.5t138.5 145.5l102 90q127 113 158 256q7 36 7 67q0 64 -31 111q-46 70 -146 70 q-258 0 -330 -336h-129zM330 0l43 205h137l-45 -205h-135z" />
<glyph unicode="@" horiz-adv-x="1605" d="M215 717q63 307 338.5 523t599.5 216q295 0 460 -175q123 -131 123 -312q0 -61 -14 -127q-49 -225 -237.5 -397.5t-358.5 -172.5q-61 0 -93 35q-21 23 -21 60q0 19 6 43h-4q-166 -137 -312 -138q-119 0 -175 80q-37 53 -37 130q0 39 10 85q47 219 227 403.5t387 184.5 q166 0 191 -168h4l77 133h115l-332 -590q-43 -82 -49 -118q-6 -23 5.5 -37.5t35.5 -14.5q131 0 279.5 162t183.5 326q11 55 11 105q0 157 -111 269q-147 146 -389 146q-291 0 -527.5 -192.5t-292.5 -458.5q-16 -74 -16 -142q0 -181 115 -320q158 -191 442 -192q166 0 335 76 t275 203h121q-137 -170 -341 -268.5t-408 -98.5q-330 0 -509 218q-131 159 -132 366q0 76 18 158zM610 578q-8 -39 -8 -71q0 -48 19 -80q31 -54 120 -54q147 0 294 167t179 320q9 41 10 73q0 45 -19 73q-32 47 -122 47q-152 0 -295 -157.5t-178 -317.5z" />
<glyph unicode="A" horiz-adv-x="1003" d="M-2 0l729 1434h160l119 -1434h-138l-26 418h-502l-205 -418h-137zM391 526h447l-52 807h-4z" />
<glyph unicode="B" horiz-adv-x="1003" d="M113 0l305 1434h395q321 0 321 -254q0 -49 -12 -107q-25 -111 -100.5 -198t-185.5 -113l-2 -4q123 -23 172 -118q31 -60 31 -139q0 -46 -11 -100q-41 -188 -179 -294.5t-341 -106.5h-393zM262 109h240q332 0 395 292q9 45 9 83q0 210 -277 210h-240zM412 803h202 q322 0 377 260q10 48 11 86q0 76 -40 116q-60 60 -214 60h-226z" />
<glyph unicode="C" horiz-adv-x="1040" d="M252 717q158 739 614 739q207 0 284 -125q50 -81 50 -191q0 -58 -14 -124h-129q11 54 11 100q0 82 -35 141q-54 92 -187 93q-162 0 -278.5 -148.5t-186.5 -484.5q-37 -197 -37 -329q0 -100 22 -162q50 -142 209 -142q133 0 232.5 106.5t148.5 294.5h129 q-63 -244 -201.5 -377t-330.5 -133q-341 0 -341 411q0 141 40 331z" />
<glyph unicode="D" horiz-adv-x="1077" d="M113 0l305 1434h344q205 0 303 -83t105 -241q1 -21 1 -43q0 -146 -41 -350q-80 -373 -227 -545t-446 -172h-344zM262 109h209q217 0 337 132t193 474q36 186 36 310q0 111 -28 171q-60 129 -278 129h-209z" />
<glyph unicode="E" horiz-adv-x="890" d="M113 0l305 1434h710l-24 -109h-582l-110 -522h542l-20 -109h-545l-127 -585h600l-20 -109h-729z" />
<glyph unicode="F" d="M113 0l305 1434h710l-24 -109h-582l-110 -522h542l-20 -109h-545l-147 -694h-129z" />
<glyph unicode="G" horiz-adv-x="1077" d="M252 717q158 739 614 739q197 0 274 -114q56 -83 56 -209q0 -47 -8 -101h-129q11 49 11 92q0 76 -35 134q-54 91 -189 92q-162 0 -278.5 -148.5t-186.5 -484.5q-37 -197 -37 -329q0 -100 22 -162q50 -142 209 -142q145 0 250 129t158 379l6 31h-338l21 108h461l-156 -731 h-100l51 238h-4q-59 -119 -162 -191t-209 -72q-341 0 -341 411q0 141 40 331z" />
<glyph unicode="H" horiz-adv-x="1040" d="M113 0l305 1434h129l-131 -611h559l131 611h129l-305 -1434h-129l153 715h-561l-151 -715h-129z" />
<glyph unicode="I" horiz-adv-x="368" d="M121 0l305 1434h127l-303 -1434h-129z" />
<glyph unicode="J" horiz-adv-x="815" d="M115 360l12 60h127l-4 -35q-35 -145 -6.5 -223t131.5 -78q113 0 179.5 62.5t100.5 226.5l226 1061h129l-230 -1076q-39 -186 -146.5 -284.5t-277.5 -98.5q-158 0 -221 91t-20 294z" />
<glyph unicode="K" horiz-adv-x="962" d="M113 0l305 1434h129l-162 -752h4l709 752h137l-567 -598l309 -836h-135l-277 727l-217 -225l-106 -502h-129z" />
<glyph unicode="L" d="M113 0l305 1434h129l-285 -1325h594l-20 -109h-723z" />
<glyph unicode="M" horiz-adv-x="1376" d="M125 0l305 1434h221l76 -1274h4l617 1274h208l-303 -1434h-129l279 1313h-4l-649 -1313h-121l-92 1313h-5l-280 -1313h-127z" />
<glyph unicode="N" horiz-adv-x="1077" d="M113 0l305 1434h172l282 -1250h5l266 1250h127l-305 -1434h-172l-283 1249h-4l-264 -1249h-129z" />
<glyph unicode="O" horiz-adv-x="1114" d="M252 717q158 739 615 739q340 0 341 -409q0 -141 -41 -330q-158 -741 -615 -742q-340 0 -341 411q1 141 41 331zM366 226q50 -142 210.5 -142t276.5 148.5t187 484.5q37 196 37 327q0 100 -21 162q-50 143 -211 143.5t-277.5 -148t-186.5 -484.5q-37 -197 -37 -329 q0 -100 22 -162z" />
<glyph unicode="P" horiz-adv-x="962" d="M113 0l305 1434h387q201 0 274 -108q47 -69 48 -172q0 -57 -15 -126q-41 -182 -167 -293.5t-357 -111.5h-215l-131 -623h-129zM395 731h219q305 0 369 297q12 56 12 101q0 80 -40 125q-62 71 -214 71h-219z" />
<glyph unicode="Q" horiz-adv-x="1114" d="M252 717q158 739 615 739q340 0 341 -409q0 -141 -41 -330q-86 -397 -252 -576l117 -141l-86 -76l-115 139q-125 -88 -278 -88q-341 0 -341 411q0 141 40 331zM366 226q50 -142 209 -142q109 0 195 66l-129 155l86 76l123 -150q119 156 190 486q37 196 37 327 q0 100 -21 162q-50 143 -211 143.5t-277.5 -148t-186.5 -484.5q-37 -197 -37 -329q0 -100 22 -162z" />
<glyph unicode="R" horiz-adv-x="1003" d="M113 0l305 1434h428q176 0 252 -96q53 -66 53 -169q0 -45 -10 -96q-72 -315 -338 -362v-4q129 -12 166 -91q20 -42 20 -112q0 -59 -14 -137l-29 -156q-10 -59 -10 -104q0 -70 25 -107h-150q-10 25 -10 70q0 52 14 131l23 121q16 89 16 152q0 74 -23 111q-41 69 -208 68 h-244l-137 -653h-129zM403 762h222q322 0 381 282q10 47 9 87q0 76 -36 122q-55 72 -223 72h-234z" />
<glyph unicode="S" horiz-adv-x="962" d="M143 401l9 43h127l-13 -55q-10 -47 -9 -87q0 -80 37 -135q56 -83 193 -83q141 0 240.5 73.5t130.5 217.5q8 36 8 67q0 44 -15 78q-26 59 -80 91t-123.5 55.5t-137.5 51t-121 67.5t-76 114q-11 37 -11 81.5t11 96.5q37 172 164 275.5t311 103.5q321 0 322 -267 q0 -56 -14 -124h-129q12 52 11 95q0 69 -30 115q-49 75 -178 75q-125 0 -213 -74t-111 -184q-8 -37 -7 -69q0 -34 8 -64q17 -56 60.5 -85.5t99 -56t116.5 -45t117.5 -48.5t97.5 -68t57 -104q7 -30 8 -64q0 -43 -12 -93q-41 -203 -182 -311.5t-342 -108.5q-203 0 -286 109 q-53 70 -53 183q0 60 15 134z" />
<glyph unicode="T" horiz-adv-x="890" d="M293 1325l24 109h867l-25 -109h-368l-281 -1325h-129l281 1325h-369z" />
<glyph unicode="U" horiz-adv-x="1003" d="M178 401l219 1033h129l-219 -1031q-68 -319 213 -319t348 319l219 1031h130l-220 -1033q-90 -426 -501 -426q-203 0 -283 102.5t-35 323.5z" />
<glyph unicode="V" horiz-adv-x="925" d="M311 1434h138l40 -1297h5l596 1297h137l-682 -1434h-162z" />
<glyph unicode="W" horiz-adv-x="1447" d="M326 0l2 1434h127l-17 -1262h4l512 1262h150l-25 -1262h4l521 1262h129l-609 -1434h-161l30 1260h-4l-504 -1260h-159z" />
<glyph unicode="X" horiz-adv-x="925" d="M-2 0l549 731l-217 703h135l182 -582l432 582h129l-520 -703l242 -731h-137l-203 616l-463 -616h-129z" />
<glyph unicode="Y" horiz-adv-x="890" d="M299 1434h137l162 -715l467 715h137l-569 -861l-123 -573h-129l123 573z" />
<glyph unicode="Z" horiz-adv-x="925" d="M45 0l25 121l954 1204h-659l24 109h789l-25 -121l-944 -1204h696l-22 -109h-838z" />
<glyph unicode="[" horiz-adv-x="483" d="M88 -369l383 1803h317l-22 -101h-197l-338 -1601h197l-22 -101h-318z" />
<glyph unicode="\" horiz-adv-x="557" d="M289 1456h108l174 -1481h-108z" />
<glyph unicode="]" horiz-adv-x="483" d="M-78 -369l23 101h196l338 1601h-196l22 101h318l-383 -1803h-318z" />
<glyph unicode="^" horiz-adv-x="1204" d="M193 487l657 910h100l271 -910h-109l-240 789l-571 -789h-108z" />
<glyph unicode="_" horiz-adv-x="1003" d="M-53 -250l20 98h1004l-21 -98h-1003z" />
<glyph unicode="`" horiz-adv-x="372" d="M295 1481h143l90 -283h-96z" />
<glyph unicode="a" d="M119 276q49 236 278 295l240 66q70 16 93.5 46t43.5 122q7 34 8 61q0 123 -151 123q-205 0 -258 -239h-121q74 340 401 340q251 0 252 -198q0 -39 -10 -85l-133 -631q-4 -20 -4 -36q0 -52 47 -52h35l-19 -88q-37 -12 -59 -12q-78 0 -110 27q-21 18 -21 59q0 21 6 47l8 35 h-4q-100 -180 -315 -181q-219 0 -219 198q0 46 12 103zM250 285q-8 -36 -8 -67q0 -49 20 -85q33 -57 111 -57q113 0 196.5 81t114.5 220l49 225h-4q-25 -43 -145 -70l-105 -26q-98 -25 -154.5 -77t-74.5 -144z" />
<glyph unicode="b" horiz-adv-x="890" d="M104 0l306 1434h120l-112 -529h4q37 86 112.5 135.5t174.5 49.5q255 0 255 -309q0 -105 -30 -246q-121 -559 -463 -560q-94 0 -153.5 54.5t-63.5 146.5h-4l-37 -176h-109zM307 296v-14q0 -84 23 -126q25 -45 58.5 -62.5t84.5 -17.5t92 17.5t86 62.5t84 140t70 239 q32 144 32 241q0 90 -25 133q-26 45 -59.5 62.5t-85 17.5t-92 -17.5t-85 -62.5t-83 -139t-68.5 -236.5t-32 -237.5z" />
<glyph unicode="c" horiz-adv-x="815" d="M174 535q59 274 182 414.5t301 140.5q152 0 219 -89q48 -63 47 -164q0 -41 -8 -87h-120q5 37 5 68q0 72 -27 113q-38 58 -134 58q-113 0 -198 -98t-140 -359q-31 -145 -33 -240v-14q0 -85 25 -125q27 -44 58.5 -60.5t80.5 -16.5q193 0 279 276h120 q-51 -172 -162.5 -274.5t-256.5 -102.5q-268 0 -268 313q0 106 30 247z" />
<glyph unicode="d" horiz-adv-x="890" d="M186 535q117 555 459 555q98 0 152.5 -49.5t56.5 -135.5h4l113 529h121l-306 -1434h-108l39 176h-4q-45 -92 -128 -146.5t-177 -54.5q-253 0 -253 306q-1 108 31 254zM283 296q0 -7 -1 -14q0 -85 24 -126q26 -45 59.5 -62.5t85 -17.5t92.5 17.5t85 62.5t84 140t69 237 q31 147 31 244q0 89 -25 132q-26 45 -58.5 62.5t-83.5 17.5q-109 0 -191.5 -93t-138.5 -361q-30 -144 -32 -239z" />
<glyph unicode="e" d="M186 535q59 274 182.5 414.5t301.5 140.5t234 -125q28 -63 29 -163q0 -98 -28 -231l-10 -43h-582l-10 -51q-24 -111 -24 -190q0 -73 21 -118q44 -93 144 -93q197 0 283 276h121q-51 -172 -164 -274.5t-260 -102.5q-268 0 -268 313q0 106 30 247zM336 629h452 q20 100 20 170q0 67 -17 107q-37 83 -152 83t-187.5 -82.5t-115.5 -277.5z" />
<glyph unicode="f" horiz-adv-x="483" d="M160 0l205 965h-146l23 100h145l27 127q29 129 87 193.5t199 64.5q43 0 76 -6l-22 -101q-23 6 -56 7q-68 0 -106.5 -35t-56.5 -123l-27 -127h188l-22 -100h-189l-204 -965h-121z" />
<glyph unicode="g" horiz-adv-x="890" d="M86 -109h121q-4 -18 -4 -34q0 -49 37 -81q49 -44 133 -44q223 0 284 291l37 167h-4q-47 -94 -125 -142t-164 -48q-51 0 -94 14.5t-78.5 51t-54.5 96.5q-17 53 -17 136q0 9 1 18q2 95 28 219q117 555 459 555q88 0 144.5 -49.5t62.5 -139.5h4l37 164h108l-210 -989 q-94 -444 -443 -445q-152 0 -219 71q-50 52 -50 130q0 27 7 59zM303 195q35 -94 146.5 -94.5t190.5 100t130 346.5q29 150 29 245q0 65 -14 103q-34 94 -146.5 94t-191 -100.5t-130.5 -341.5q-29 -151 -28 -246q0 -67 14 -106z" />
<glyph unicode="h" horiz-adv-x="890" d="M117 0l305 1434h121l-111 -516h4q39 80 120 126t177 46q127 0 184.5 -70t28.5 -215l-172 -805h-121l166 770q43 219 -137 219q-106 0 -186 -74.5t-107 -197.5l-151 -717h-121z" />
<glyph unicode="i" horiz-adv-x="368" d="M125 0l227 1065h119l-225 -1065h-121zM385 1229l45 205h121l-45 -205h-121z" />
<glyph unicode="j" horiz-adv-x="368" d="M-129 -362l20 100q43 -6 48 -6q66 0 105.5 39t61.5 145l246 1149h119l-252 -1190q-55 -244 -282 -244q-37 1 -66 7zM385 1229l45 205h121l-45 -205h-121z" />
<glyph unicode="k" horiz-adv-x="815" d="M104 0l306 1434h120l-190 -897h4l524 528h150l-406 -395l238 -670h-150l-196 561l-199 -188l-80 -373h-121z" />
<glyph unicode="l" horiz-adv-x="368" d="M125 0l305 1434h121l-305 -1434h-121z" />
<glyph unicode="m" horiz-adv-x="1376" d="M125 0l227 1065h107l-31 -147h4q121 172 307 172q94 0 141.5 -51.5t43.5 -135.5h4q115 186 309 187q117 0 167 -68t21 -207l-172 -815h-120l167 797q43 193 -124 192q-92 0 -171 -75.5t-104 -196.5l-151 -717h-121l168 797q43 193 -125 192q-92 0 -171 -75.5t-104 -196.5 l-151 -717h-121z" />
<glyph unicode="n" horiz-adv-x="890" d="M117 0l227 1065h107l-31 -147h4q127 172 309 172q127 0 184.5 -70t28.5 -215l-172 -805h-121l166 770q43 219 -137 219q-106 0 -186 -74.5t-107 -197.5l-151 -717h-121z" />
<glyph unicode="o" d="M174 535q59 274 182 414.5t302.5 140.5t243.5 -141q34 -74 34 -186q0 -99 -27 -228q-59 -276 -184 -418t-303 -142t-243 142q-34 74 -33 184q0 101 28 234zM303 535q-29 -135 -29 -230q0 -229 170 -229q236 0 336 459q27 130 27 222q0 232 -168 232q-242 1 -336 -454z " />
<glyph unicode="p" horiz-adv-x="890" d="M31 -352l301 1417h108l-32 -152h4q45 78 122.5 127.5t176.5 49.5q174 0 227 -141q25 -66 25 -163q0 -108 -31 -254q-119 -557 -461 -557q-98 0 -152.5 49.5t-56.5 135.5h-4l-106 -512h-121zM306 287q0 -89 24 -131q25 -45 58.5 -62.5t84.5 -17.5q109 0 192 93t138 363 q31 137 32 233v7q0 90 -24 135q-25 47 -57.5 64.5t-81.5 17.5q-104 0 -189 -94q-88 -96 -145 -363q-32 -148 -32 -245z" />
<glyph unicode="q" horiz-adv-x="890" d="M184 532q61 281 172 419.5t287 138.5q98 0 154.5 -49.5t70.5 -127.5h4l33 152h109l-301 -1417h-121l108 512h-4q-39 -86 -114.5 -135.5t-173.5 -49.5q-254 0 -254 307q-1 106 30 250zM282 289q0 -90 24 -133q26 -45 59.5 -62.5t85 -17.5t92.5 17.5t85 62.5t83 139t67 237 q32 145 33 240q0 79 -23 123q-45 94 -147 94q-104 0 -188 -96t-140 -361q-31 -145 -31 -243z" />
<glyph unicode="r" horiz-adv-x="557" d="M117 0l227 1065h119l-35 -166h4q117 190 309 191q20 0 41 -7l-26 -120q-29 6 -56 6q-109 0 -199.5 -78t-121.5 -225l-141 -666h-121z" />
<glyph unicode="s" horiz-adv-x="780" d="M129 307l6 35h119l-4 -29q-10 -46 -10 -83q0 -154 163 -154q96 0 165 51t85 139q7 31 7 58q0 36 -13 63q-23 47 -94 76l-156 67q-156 65 -155 197q0 26 6 55q31 158 133 233t248 75q241 0 241 -199q0 -44 -12 -98l-6 -31h-119l6 31q8 37 8 67q0 129 -141 129 q-195 0 -233 -180q-6 -25 -6 -46q0 -32 13 -58q22 -43 99 -74l162 -68q147 -60 147 -202q0 -32 -8 -68q-29 -141 -131 -229.5t-266 -88.5q-168 0 -230 78q-38 48 -39 133q0 53 15 121z" />
<glyph unicode="t" horiz-adv-x="483" d="M197 174l168 791h-146l23 100h145l64 295h118l-61 -295h188l-22 -100h-189l-161 -764q-14 -61 7 -87t83 -26q37 0 78 12l-23 -100q-23 -12 -86 -12q-125 0 -167 41t-19 145z" />
<glyph unicode="u" horiz-adv-x="890" d="M172 260l172 805h119l-160 -750q-27 -129 6 -184t129 -55q102 0 183 75.5t108 198.5l152 715h120l-227 -1065h-108l32 150h-4q-127 -174 -311 -175q-129 0 -185.5 71t-25.5 214z" />
<glyph unicode="v" horiz-adv-x="741" d="M242 1065h127l39 -928h4l415 928h127l-505 -1065h-138z" />
<glyph unicode="w" horiz-adv-x="1187" d="M248 1065h127l-21 -944h4l396 944h147l-20 -944h4l381 944h129l-463 -1065h-144l9 946h-4l-394 -946h-143z" />
<glyph unicode="x" horiz-adv-x="741" d="M12 0l404 551l-166 514h137l121 -420l301 420h137l-387 -514l172 -551h-137l-127 457l-317 -457h-138z" />
<glyph unicode="y" horiz-adv-x="741" d="M-20 -350l22 100q47 -2 76 -2q59 0 103 31t85 110l53 101l-77 1075h127l43 -922h4l411 922h127l-555 -1151q-74 -158 -145.5 -212t-194.5 -54q-30 0 -79 2z" />
<glyph unicode="z" horiz-adv-x="704" d="M37 0l20 100l691 865h-482l23 100h608l-23 -100l-688 -865h506l-22 -100h-633z" />
<glyph unicode="{" horiz-adv-x="483" d="M154 -129l77 352q20 102 20.5 157.5t-18 77t-65.5 23.5l22 101q66 2 103 55t67 205l76 350q51 242 266 242h103l-23 -101h-100q-96 0 -125 -137l-80 -373q-51 -262 -196 -288l-2 -5q93 -20 93 -153q0 -57 -18 -135l-80 -375q-6 -29 -5 -52q0 -83 75 -83h100l-22 -101 h-103q-175 0 -175 159q1 36 10 81z" />
<glyph unicode="|" horiz-adv-x="755" d="M479 -547v2187h103v-2187h-103z" />
<glyph unicode="}" horiz-adv-x="483" d="M-94 -369l22 101h101q96 0 123 135l81 375q49 260 197 288l2 5q-95 19 -95 153q0 57 17 135l82 373q6 30 6 53q0 84 -75 84h-101l23 101h102q172 0 173 -156q0 -38 -11 -86l-74 -350q-23 -102 -22.5 -157.5t20 -78t66.5 -24.5l-23 -101q-68 -2 -103.5 -55t-66.5 -203 l-78 -352q-49 -240 -264 -240h-102z" />
<glyph unicode="~" horiz-adv-x="1204" d="M236 453q125 174 286 174q76 0 211 -66q150 -72 189 -72q86 0 206 146l58 -74q-90 -94 -151.5 -133t-137.5 -39q-82 0 -190 66q-113 72 -215.5 71.5t-200.5 -145.5z" />
<glyph unicode="&#xa1;" horiz-adv-x="481" d="M98 -346l97 455l155 606h88l-106 -606l-96 -455h-138zM360 883l43 204h138l-43 -204h-138z" />
<glyph unicode="&#xa2;" horiz-adv-x="962" d="M248 535q53 260 170 400t278 155l37 165h60l-37 -165q139 -8 198 -97q42 -62 42 -158q0 -40 -7 -85h-121q5 35 5 65q0 159 -136 174l-194 -913q166 35 241 276h121q-47 -160 -148.5 -261t-236.5 -116l-35 -165h-59l33 165q-241 15 -241 314q0 106 30 246zM343 305v-23 q0 -75 17 -116q20 -47 50 -66.5t71 -23.5l195 913q-100 -14 -175 -115.5t-128 -341.5q-27 -135 -30 -227z" />
<glyph unicode="&#xa3;" horiz-adv-x="962" d="M57 86q135 84 224.5 188.5t113.5 212.5q7 33 7 66q0 50 -15 100h-197l21 90h162l-41 129q-18 63 -19 120q0 38 9 73q33 166 170 261t309 95q182 0 264 -112q55 -75 55 -182q0 -53 -14 -115h-121q9 52 9 94q0 215 -222 215q-119 0 -208 -65.5t-113 -178.5q-5 -27 -6 -58 q0 -80 34 -185l31 -91h303l-20 -90h-269q12 -28 13 -69q0 -34 -9 -76q-47 -215 -321 -399l4 -5q109 47 166 48q12 0 129 -35q104 -33 141 -33q96 0 262 100l35 -92q-154 -117 -338 -117q-51 0 -149.5 38t-149.5 38q-70 0 -207 -63z" />
<glyph unicode="&#xa4;" horiz-adv-x="962" d="M115 332l114 94q-51 84 -51 182q0 44 10 90q35 154 158 275l-76 94l86 74l76 -94q139 94 293 94t254 -97l115 97l55 -74l-115 -94q47 -82 48 -180q0 -46 -11 -95q-31 -152 -151 -272l71 -94l-86 -76l-71 98q-143 -98 -298 -98t-255 96l-113 -96zM297 698q-9 -40 -9 -77 q0 -96 58 -166q80 -98 212 -98.5t254 98t152 243.5q8 40 8 76q0 96 -58 168q-79 98 -212 98t-253.5 -98.5t-151.5 -243.5z" />
<glyph unicode="&#xa5;" horiz-adv-x="962" d="M211 350l18 88h281l29 125l-13 49h-260l19 88h219l-176 697h135l170 -690l461 690h137l-475 -697h219l-19 -88h-258l-32 -49l-27 -125h281l-19 -88h-280l-74 -350h-129l74 350h-281z" />
<glyph unicode="&#xa6;" horiz-adv-x="755" d="M479 381h101v-762h-101v762zM479 711v764h101v-764h-101z" />
<glyph unicode="&#xa7;" horiz-adv-x="964" d="M147 4l9 41h120q-9 -42 -9 -77q0 -60 27 -102q42 -67 155 -67q92 0 160.5 52.5t84.5 130.5q5 24 5 46q0 41 -17 74q-27 51 -104 111l-209 154q-104 80 -140 146q-22 42 -22 96q0 32 8 67q18 86 95 165t169 111q-83 67 -82 165q0 28 6 59q27 131 139.5 205.5t258.5 74.5 q152 0 219 -82q47 -58 47 -141q0 -36 -8 -76h-119q5 26 5 50q0 58 -33 96q-46 53 -138 53q-90 0 -157.5 -50.5t-84.5 -123.5q-3 -15 -3 -30q0 -34 18 -65q25 -43 100 -100l225 -172q94 -70 124 -136q18 -39 18 -89q0 -34 -8 -72q-18 -88 -87 -163.5t-163 -114.5 q47 -45 66 -110q11 -37 11 -74q0 -27 -6 -54q-29 -133 -136 -218t-261 -85q-158 0 -234 86q-56 63 -56 150q-1 33 7 69zM336 684q-3 -14 -3 -28q0 -91 126 -187l227 -172q166 70 199 227q3 15 3 30q0 82 -97 157l-246 186q-180 -86 -209 -213z" />
<glyph unicode="&#xa8;" horiz-adv-x="372" d="M240 1241l43 205h120l-45 -205h-118zM541 1241l43 205h121l-46 -205h-118z" />
<glyph unicode="&#xa9;" horiz-adv-x="1605" d="M215 717q63 307 326.5 523t570.5 216t477 -216q124 -157 124 -363q0 -77 -17 -160q-63 -307 -327.5 -524.5t-572 -217.5t-475.5 218q-123 158 -123 363q0 77 17 161zM314 716q-16 -73 -15 -141q0 -176 106 -312q147 -187 412.5 -187t493 187.5t284.5 453.5q16 74 16 141 q0 175 -107 310q-148 187 -412.5 187.5t-493 -187t-284.5 -452.5zM532 717q43 207 188.5 337t350.5 130q152 0 240 -81q79 -72 79 -197q0 -14 -1 -29h-109q-2 90 -61.5 148t-165.5 58q-160 0 -269.5 -103t-142.5 -263q-10 -48 -10 -93q0 -94 47 -167q70 -109 223 -109 q104 0 189.5 60.5t123.5 154.5h109q-66 -141 -185.5 -228t-258.5 -87q-201 0 -295 133q-65 91 -65 216q0 56 13 120z" />
<glyph unicode="&#xaa;" horiz-adv-x="555" d="M207 926q31 150 199 190l155 39q45 8 61.5 25.5t26.5 62.5q1 8 1 15q0 32 -22 52q-28 24 -81 23q-131 0 -160 -125h-100q25 106 91 159.5t187 53.5q119 0 160 -44q29 -31 29 -82q0 -20 -4 -44l-80 -372q-3 -12 -3 -22q0 -32 31 -32h23l-16 -75q-31 -12 -70 -13 q-77 0 -77 56q0 11 3 24l4 29h-4q-59 -109 -201 -109q-94 0 -133 54q-26 36 -26 85q0 24 6 50zM317 938q-3 -15 -3 -29q0 -30 16 -52q23 -32 67 -32q72 0 126.5 47.5t72.5 128.5l22 105h-4q-12 -23 -90 -43l-71 -14q-118 -29 -136 -111z" />
<glyph unicode="&#xab;" horiz-adv-x="741" d="M223 510l27 121l307 278l-27 -137l-223 -203l137 -202l-30 -136zM485 510l27 121l309 278l-28 -137l-224 -203l138 -202l-31 -136z" />
<glyph unicode="&#xac;" horiz-adv-x="1204" d="M233 651l21 103h1016l-115 -537h-100l94 434h-916z" />
<glyph unicode="&#xad;" horiz-adv-x="667" d="M227 516l23 109h434l-22 -109h-435z" />
<glyph unicode="&#xae;" horiz-adv-x="1605" d="M215 717q63 307 326.5 523t570.5 216t477 -216q124 -157 124 -363q0 -77 -17 -160q-63 -307 -327.5 -524.5t-572 -217.5t-475.5 218q-123 158 -123 363q0 77 17 161zM314 716q-16 -73 -15 -141q0 -176 107 -312q147 -187 412 -187t492.5 187.5t284.5 453.5q16 74 16 141 q0 175 -107 310q-148 187 -412.5 187.5t-493 -187t-284.5 -452.5zM582 276l188 881h340q243 0 243 -177q0 -31 -7 -67q-47 -207 -275 -245l178 -392h-121l-176 392h-186l-84 -392h-100zM784 756h217h6q204 0 238 159q4 21 4 39q0 56 -39 81q-51 34 -143 34h-215z" />
<glyph unicode="&#xaf;" horiz-adv-x="372" d="M223 1296l21 88h477l-21 -88h-477z" />
<glyph unicode="&#xb0;" horiz-adv-x="802" d="M355 1135q26 119 127.5 202.5t220 83.5t185.5 -84q48 -61 48 -139q0 -30 -7 -63q-26 -119 -127.5 -203t-220 -84t-185.5 84q-48 61 -48 139q0 31 7 64zM443 1135q-5 -22 -4 -44q0 -55 33 -97q46 -58 128 -58t152.5 58.5t88.5 140.5q5 22 4 43q0 55 -33 97q-46 58 -128 58 t-153 -58t-88 -140z" />
<glyph unicode="&#xb1;" horiz-adv-x="1204" d="M94 0l23 100h1016l-23 -100h-1016zM215 569l23 101h456l74 346h100l-73 -346h458l-22 -101h-459l-72 -344h-100l72 344h-457z" />
<glyph unicode="&#xb2;" horiz-adv-x="624" d="M174 561q23 104 85.5 180t178.5 156l115 78q78 53 115 101t51 110q4 21 4 39q0 44 -25 70q-35 38 -100 38q-72 0 -123 -47t-74 -135h-108q61 270 332 270q111 0 169 -57q41 -40 41 -110q0 -29 -8 -64q-18 -82 -60 -140.5t-142 -121.5l-117 -76q-158 -100 -207 -201h416 l-19 -90h-524z" />
<glyph unicode="&#xb3;" horiz-adv-x="624" d="M209 793h108q-3 -16 -3 -32q0 -41 24 -76q33 -48 106 -48q66 0 127.5 44t77.5 126q4 19 4 36q0 49 -30 80q-41 42 -125 42h-54l19 88h37q80 0 135 38.5t67 100.5q5 20 5 37q0 37 -21 64q-31 40 -94 40q-61 0 -113.5 -40t-68.5 -109h-109q25 111 102.5 174t206.5 63 q117 0 172 -56q39 -40 40 -101q0 -25 -7 -54q-16 -74 -64.5 -126t-123.5 -68l-2 -4q80 -10 114 -67q24 -38 24 -87q0 -23 -5 -49q-25 -121 -111 -190.5t-221 -69.5q-223 0 -223 179q0 30 6 65z" />
<glyph unicode="&#xb4;" horiz-adv-x="372" d="M354 1198l211 283h144l-258 -283h-97z" />
<glyph unicode="&#xb5;" horiz-adv-x="890" d="M43 -352l301 1417h119l-160 -750q-27 -129 6 -184t129 -55q102 0 183 75.5t108 198.5l152 715h120l-227 -1065h-108l32 150h-4q-127 -174 -311 -175q-117 0 -135 50h-4l-82 -377h-119z" />
<glyph unicode="&#xb6;" horiz-adv-x="964" d="M281 1036q41 188 165.5 293t298.5 105h365l-362 -1710h-101l342 1622h-215l-342 -1622h-100l200 946q-135 0 -208 107q-52 76 -52 174q0 40 9 85z" />
<glyph unicode="&#xb7;" horiz-adv-x="481" d="M270.5 658q10.5 44 48 77t85 33t73 -33t15 -78t-50.5 -76.5t-85 -31.5t-70.5 32.5t-15 76.5z" />
<glyph unicode="&#xb8;" horiz-adv-x="372" d="M-74 -369l35 62q57 -31 115 -31q70 0 110.5 25.5t49 62.5t-20.5 55.5t-72 18.5q-55 0 -94 -21l-16 35l147 162h74l-109 -113l4 -2q23 10 70 11q63 0 100 -39q29 -30 29 -73q0 -12 -2 -24q-16 -78 -94 -124t-156 -46q-98 0 -170 41z" />
<glyph unicode="&#xb9;" horiz-adv-x="624" d="M330 1204l14 72q223 2 264 145h90l-180 -860h-108l137 643h-217z" />
<glyph unicode="&#xba;" horiz-adv-x="555" d="M248 1079q74 342 330 342q205 0 205 -206q0 -59 -17 -136q-72 -342 -332 -342q-203 0 -202 208q0 58 16 134zM354 1079q-12 -61 -11 -106q0 -52 14 -85q28 -62 94 -63q70 0 126 62.5t80 191.5q14 65 14.5 113t-14.5 79q-29 62 -98 62q-66 0 -121 -61.5t-84 -192.5z" />
<glyph unicode="&#xbb;" horiz-adv-x="741" d="M162 231l31 136l221 202l-135 203l28 137l193 -278l-27 -121zM426 231l29 136l221 202l-133 203l26 137l193 -278l-25 -121z" />
<glyph unicode="&#xbc;" horiz-adv-x="1445" d="M168 -59l1227 1515h100l-1227 -1515h-100zM330 1204l14 72q223 2 264 145h90l-180 -860h-108l137 643h-217zM811 221l16 72l473 565h121l-121 -565h109l-16 -72h-109l-45 -221h-100l45 221h-373zM915 293h285l92 430h-4z" />
<glyph unicode="&#xbd;" horiz-adv-x="1445" d="M109 -59l1226 1515h101l-1227 -1515h-100zM330 1204l14 72q223 2 264 145h90l-180 -860h-108l137 643h-217zM795 0q23 104 85 179t177 157l117 78q143 96 165 211q5 23 6 42q0 41 -24 66q-35 37 -100 37q-150 0 -199 -182h-109q61 270 334 270q109 0 167 -56 q42 -41 42 -113q0 -28 -6 -60q-18 -82 -61 -140.5t-142 -123.5l-117 -74q-162 -102 -208 -203h415l-18 -88h-524z" />
<glyph unicode="&#xbe;" horiz-adv-x="1445" d="M209 793h108q-3 -16 -3 -32q0 -41 24 -76q33 -48 106 -48q66 0 127.5 44t77.5 126q4 19 4 36q0 49 -30 80q-41 42 -125 42h-54l19 88h37q80 0 135 38.5t67 100.5q5 20 5 37q0 37 -21 64q-31 40 -94 40q-61 0 -113.5 -40t-68.5 -109h-109q25 111 102.5 174t206.5 63 q117 0 172 -56q39 -40 40 -101q0 -25 -7 -54q-16 -74 -64.5 -126t-123.5 -68l-2 -4q80 -10 114 -67q24 -38 24 -87q0 -23 -5 -49q-25 -121 -111 -190.5t-221 -69.5q-223 0 -223 179q0 30 6 65zM229 -59l1225 1515h102l-1226 -1515h-101zM811 221l16 72l473 565h121 l-121 -565h109l-16 -72h-109l-45 -221h-100l45 221h-373zM915 293h285l92 430h-4z" />
<glyph unicode="&#xbf;" d="M63 -18q39 176 197 315l107 92q78 66 114.5 124t57.5 146l12 58h119l-17 -70q-20 -111 -61 -175t-139 -146l-101 -90q-129 -113 -159 -256q-7 -35 -8 -67q0 -65 32 -112q47 -70 148 -69q256 0 327 336h129q-43 -197 -163.5 -317t-305.5 -120q-168 0 -244 97 q-54 67 -54 165q-1 42 9 89zM578 883l43 204h135l-41 -204h-137z" />
<glyph unicode="&#xc0;" horiz-adv-x="1003" d="M-2 0l729 1434h160l119 -1434h-138l-26 418h-502l-205 -418h-137zM391 526h447l-52 807h-4zM674 1784h143l90 -283h-96z" />
<glyph unicode="&#xc1;" horiz-adv-x="1003" d="M-2 0l729 1434h160l119 -1434h-138l-26 418h-502l-205 -418h-137zM391 526h447l-52 807h-4zM735 1501l211 283h141l-256 -283h-96z" />
<glyph unicode="&#xc2;" horiz-adv-x="1003" d="M-2 0l729 1434h160l119 -1434h-138l-26 418h-502l-205 -418h-137zM391 526h447l-52 807h-4zM567 1501l254 283h121l131 -283h-119l-92 201l-174 -201h-121z" />
<glyph unicode="&#xc3;" horiz-adv-x="1003" d="M-2 0l729 1434h160l119 -1434h-138l-26 418h-502l-205 -418h-137zM391 526h447l-52 807h-4zM559 1540q18 70 76.5 133.5t118.5 63.5q51 0 106 -37l47 -31q33 -20 56 -20q31 0 58.5 32.5t31.5 63.5h90q-18 -72 -74.5 -134.5t-122.5 -62.5q-47 0 -94 29l-66 43 q-29 16 -45 16q-27 0 -52 -29.5t-40 -66.5h-90z" />
<glyph unicode="&#xc4;" horiz-adv-x="1003" d="M-2 0l729 1434h160l119 -1434h-138l-26 418h-502l-205 -418h-137zM391 526h447l-52 807h-4zM618 1544l44 205h120l-43 -205h-121zM920 1544l43 205h120l-43 -205h-120z" />
<glyph unicode="&#xc5;" horiz-adv-x="1003" d="M-2 0l729 1434h160l119 -1434h-138l-26 418h-502l-205 -418h-137zM391 526h447l-52 807h-4zM667 1670q15 79 83.5 134.5t146.5 55.5t122 -56q33 -41 33 -95q0 -19 -4 -39q-15 -79 -84 -135t-147 -56t-122 56q-33 42 -32 96q0 19 4 39zM739 1670q-3 -14 -3 -27 q0 -32 19 -57q26 -34 76 -34t92 34t52 84q3 14 3 27q0 33 -20 57q-27 34 -77 34t-91 -34t-51 -84z" />
<glyph unicode="&#xc6;" horiz-adv-x="1411" d="M-16 0l886 1434h793l-23 -109h-565l-110 -522h526l-23 -109h-524l-127 -585h582l-23 -109h-710l88 418h-383l-250 -418h-137zM436 526h342l170 799h-20z" />
<glyph unicode="&#xc7;" horiz-adv-x="1040" d="M252 717q158 739 614 739q207 0 284 -125q50 -81 50 -191q0 -58 -14 -124h-129q11 54 11 100q0 82 -35 141q-54 92 -187 93q-162 0 -278.5 -148.5t-186.5 -484.5q-37 -197 -37 -329q0 -100 22 -162q50 -142 209 -142q133 0 232.5 106.5t148.5 294.5h129 q-59 -227 -184 -358t-295 -147l-90 -93l4 -2q27 10 70 11q63 0 101 -39q29 -29 29 -70q0 -13 -3 -27q-16 -78 -93 -124t-157 -46q-98 0 -170 41l37 62q55 -31 115 -31q68 0 108.5 25.5t48.5 62.5t-20.5 55.5t-71.5 18.5q-55 0 -92 -21l-19 35l127 137q-318 17 -318 414 q1 141 40 328z" />
<glyph unicode="&#xc8;" horiz-adv-x="890" d="M113 0l305 1434h710l-24 -109h-582l-110 -522h542l-20 -109h-545l-127 -585h600l-20 -109h-729zM653 1784h144l90 -283h-96z" />
<glyph unicode="&#xc9;" horiz-adv-x="890" d="M113 0l305 1434h710l-24 -109h-582l-110 -522h542l-20 -109h-545l-127 -585h600l-20 -109h-729zM715 1501l211 283h141l-256 -283h-96z" />
<glyph unicode="&#xca;" horiz-adv-x="890" d="M113 0l305 1434h710l-24 -109h-582l-110 -522h542l-20 -109h-545l-127 -585h600l-20 -109h-729zM549 1501l252 283h121l131 -283h-119l-90 201l-176 -201h-119z" />
<glyph unicode="&#xcb;" horiz-adv-x="890" d="M113 0l305 1434h710l-24 -109h-582l-110 -522h542l-20 -109h-545l-127 -585h600l-20 -109h-729zM598 1544l45 205h119l-43 -205h-121zM899 1544l45 205h119l-43 -205h-121z" />
<glyph unicode="&#xcc;" horiz-adv-x="368" d="M121 0l305 1434h127l-303 -1434h-129zM356 1784h144l90 -283h-96z" />
<glyph unicode="&#xcd;" horiz-adv-x="368" d="M121 0l305 1434h127l-303 -1434h-129zM418 1501l211 283h141l-256 -283h-96z" />
<glyph unicode="&#xce;" horiz-adv-x="368" d="M121 0l305 1434h127l-303 -1434h-129zM250 1501l254 283h121l131 -283h-119l-90 201l-176 -201h-121z" />
<glyph unicode="&#xcf;" horiz-adv-x="368" d="M121 0l305 1434h127l-303 -1434h-129zM301 1544l45 205h119l-43 -205h-121zM602 1544l45 205h119l-43 -205h-121z" />
<glyph unicode="&#xd0;" horiz-adv-x="1077" d="M113 0l147 694h-110l20 109h113l135 631h344q205 0 303 -83t105 -241q1 -21 1 -43q0 -146 -41 -350q-80 -373 -227 -545t-446 -172h-344zM262 109h209q217 0 337 132t193 474q36 186 36 310q0 111 -28 171q-60 129 -278 129h-209l-110 -522h321l-22 -109h-322z" />
<glyph unicode="&#xd1;" horiz-adv-x="1077" d="M113 0l305 1434h172l282 -1250h5l266 1250h127l-305 -1434h-172l-283 1249h-4l-264 -1249h-129zM598 1540q18 70 76.5 133.5t118.5 63.5q51 0 106 -37l47 -31q33 -20 55 -20q31 0 57.5 32.5t33.5 63.5h88q-18 -72 -73.5 -134.5t-123.5 -62.5q-47 0 -92 29l-66 43 q-29 16 -47 16q-25 0 -50.5 -29.5t-41.5 -66.5h-88z" />
<glyph unicode="&#xd2;" horiz-adv-x="1114" d="M252 717q158 739 615 739q340 0 341 -409q0 -141 -41 -330q-158 -741 -615 -742q-340 0 -341 411q1 141 41 331zM366 226q50 -142 210.5 -142t276.5 148.5t187 484.5q37 196 37 327q0 100 -21 162q-50 143 -211 143.5t-277.5 -148t-186.5 -484.5q-37 -197 -37 -329 q0 -100 22 -162zM731 1784h141l91 -283h-97z" />
<glyph unicode="&#xd3;" horiz-adv-x="1114" d="M252 717q158 739 615 739q340 0 341 -409q0 -141 -41 -330q-158 -741 -615 -742q-340 0 -341 411q1 141 41 331zM366 226q50 -142 210.5 -142t276.5 148.5t187 484.5q37 196 37 327q0 100 -21 162q-50 143 -211 143.5t-277.5 -148t-186.5 -484.5q-37 -197 -37 -329 q0 -100 22 -162zM791 1501l210 283h144l-258 -283h-96z" />
<glyph unicode="&#xd4;" horiz-adv-x="1114" d="M252 717q158 739 615 739q340 0 341 -409q0 -141 -41 -330q-158 -741 -615 -742q-340 0 -341 411q1 141 41 331zM366 226q50 -142 210.5 -142t276.5 148.5t187 484.5q37 196 37 327q0 100 -21 162q-50 143 -211 143.5t-277.5 -148t-186.5 -484.5q-37 -197 -37 -329 q0 -100 22 -162zM625 1501l252 283h120l133 -283h-120l-90 201l-175 -201h-120z" />
<glyph unicode="&#xd5;" horiz-adv-x="1114" d="M252 717q158 739 615 739q340 0 341 -409q0 -141 -41 -330q-158 -741 -615 -742q-340 0 -341 411q1 141 41 331zM366 226q50 -142 210.5 -142t276.5 148.5t187 484.5q37 196 37 327q0 100 -21 162q-50 143 -211 143.5t-277.5 -148t-186.5 -484.5q-37 -197 -37 -329 q0 -100 22 -162zM616 1540q18 70 77 133.5t118 63.5q49 0 107 -37l45 -31q33 -20 57 -20q31 0 57.5 32.5t32.5 63.5h88q-18 -72 -74.5 -134.5t-122.5 -62.5q-47 0 -92 29l-65 43q-29 16 -47 16q-27 0 -51.5 -29.5t-40.5 -66.5h-89z" />
<glyph unicode="&#xd6;" horiz-adv-x="1114" d="M252 717q158 739 615 739q340 0 341 -409q0 -141 -41 -330q-158 -741 -615 -742q-340 0 -341 411q1 141 41 331zM366 226q50 -142 210.5 -142t276.5 148.5t187 484.5q37 196 37 327q0 100 -21 162q-50 143 -211 143.5t-277.5 -148t-186.5 -484.5q-37 -197 -37 -329 q0 -100 22 -162zM674 1544l45 205h121l-45 -205h-121zM975 1544l45 205h121l-45 -205h-121z" />
<glyph unicode="&#xd7;" horiz-adv-x="1204" d="M174 127l467 381l-303 383l88 70l299 -381l463 381l57 -70l-465 -383l301 -381l-86 -72l-301 383l-461 -383z" />
<glyph unicode="&#xd8;" horiz-adv-x="1114" d="M180 -51l101 155q-70 99 -70 282q0 140 41 331q158 739 614 739q143 0 224 -67l81 129l70 -29l-100 -158q67 -99 67 -281q0 -141 -41 -333q-158 -741 -614 -742q-139 0 -221 70l-82 -129zM360 240l662 1032q-59 78 -176 78q-162 0 -278.5 -148.5t-186.5 -484.5 q-40 -192 -40 -324q0 -91 19 -153zM401 160q53 -76 174 -76q162 0 278 148.5t187 484.5q38 185 39 314q0 98 -22 163z" />
<glyph unicode="&#xd9;" horiz-adv-x="1003" d="M178 401l219 1033h129l-219 -1031q-13 -62 -13 -112q0 -207 226 -207q281 0 348 319l219 1031h130l-220 -1033q-90 -426 -501 -426q-203 0 -283 103q-51 65 -51 179q0 64 16 144zM674 1784h143l90 -283h-96z" />
<glyph unicode="&#xda;" horiz-adv-x="1003" d="M178 401l219 1033h129l-219 -1031q-13 -62 -13 -112q0 -207 226 -207q281 0 348 319l219 1031h130l-220 -1033q-90 -426 -501 -426q-203 0 -283 103q-51 65 -51 179q0 64 16 144zM735 1501l211 283h141l-256 -283h-96z" />
<glyph unicode="&#xdb;" horiz-adv-x="1003" d="M178 401l219 1033h129l-219 -1031q-13 -62 -13 -112q0 -207 226 -207q281 0 348 319l219 1031h130l-220 -1033q-90 -426 -501 -426q-203 0 -283 103q-51 65 -51 179q0 64 16 144zM567 1501l254 283h121l131 -283h-119l-92 201l-174 -201h-121z" />
<glyph unicode="&#xdc;" horiz-adv-x="1003" d="M178 401l219 1033h129l-219 -1031q-13 -62 -13 -112q0 -207 226 -207q281 0 348 319l219 1031h130l-220 -1033q-90 -426 -501 -426q-203 0 -283 103q-51 65 -51 179q0 64 16 144zM618 1544l44 205h120l-43 -205h-121zM920 1544l43 205h120l-43 -205h-120z" />
<glyph unicode="&#xdd;" horiz-adv-x="890" d="M299 1434h137l162 -715l467 715h137l-569 -861l-123 -573h-129l123 573zM678 1501l211 283h143l-258 -283h-96z" />
<glyph unicode="&#xde;" horiz-adv-x="962" d="M113 0l305 1434h129l-62 -281h269q195 0 266 -110q46 -71 46 -174q0 -56 -13 -121q-39 -184 -167 -295t-358 -111h-215l-71 -342h-129zM338 451h217q305 0 369 297q10 49 9 89q0 88 -45 137q-67 71 -206 70h-219z" />
<glyph unicode="&#xdf;" horiz-adv-x="890" d="M104 0l232 1081q35 178 143.5 273.5t268.5 95.5q152 0 219 -88t32 -244q-20 -102 -87.5 -185t-180.5 -106l-2 -4q80 -10 129 -50t64.5 -100.5t15.5 -118.5t-14 -120q-45 -209 -173 -327.5t-307 -118.5q-55 0 -82 12l23 100q20 -12 64 -12q119 0 214 89t134 265 q68 319 -217 320h-43l18 100h35q106 0 181 63.5t99 186.5q23 106 -14 172t-135 66q-211 0 -270 -281l-226 -1069h-121z" />
<glyph unicode="&#xe0;" d="M119 276q49 236 278 295l240 66q70 16 93.5 46t43.5 122q7 34 8 61q0 123 -151 123q-205 0 -258 -239h-121q74 340 401 340q251 0 252 -198q0 -39 -10 -85l-133 -631q-4 -20 -4 -36q0 -52 47 -52h35l-19 -88q-37 -12 -59 -12q-78 0 -110 27q-21 18 -21 59q0 21 6 47l8 35 h-4q-100 -180 -315 -181q-219 0 -219 198q0 46 12 103zM250 285q-8 -36 -8 -67q0 -49 20 -85q33 -57 111 -57q113 0 196.5 81t114.5 220l49 225h-4q-25 -43 -145 -70l-105 -26q-98 -25 -154.5 -77t-74.5 -144zM537 1481h141l90 -283h-96z" />
<glyph unicode="&#xe1;" d="M119 276q49 236 278 295l240 66q70 16 93.5 46t43.5 122q7 34 8 61q0 123 -151 123q-205 0 -258 -239h-121q74 340 401 340q251 0 252 -198q0 -39 -10 -85l-133 -631q-4 -20 -4 -36q0 -52 47 -52h35l-19 -88q-37 -12 -59 -12q-78 0 -110 27q-21 18 -21 59q0 21 6 47l8 35 h-4q-100 -180 -315 -181q-219 0 -219 198q0 46 12 103zM250 285q-8 -36 -8 -67q0 -49 20 -85q33 -57 111 -57q113 0 196.5 81t114.5 220l49 225h-4q-25 -43 -145 -70l-105 -26q-98 -25 -154.5 -77t-74.5 -144zM596 1198l211 283h143l-258 -283h-96z" />
<glyph unicode="&#xe2;" d="M119 276q49 236 278 295l240 66q70 16 93.5 46t43.5 122q7 34 8 61q0 123 -151 123q-205 0 -258 -239h-121q74 340 401 340q251 0 252 -198q0 -39 -10 -85l-133 -631q-4 -20 -4 -36q0 -52 47 -52h35l-19 -88q-37 -12 -59 -12q-78 0 -110 27q-21 18 -21 59q0 21 6 47l8 35 h-4q-100 -180 -315 -181q-219 0 -219 198q0 46 12 103zM250 285q-8 -36 -8 -67q0 -49 20 -85q33 -57 111 -57q113 0 196.5 81t114.5 220l49 225h-4q-25 -43 -145 -70l-105 -26q-98 -25 -154.5 -77t-74.5 -144zM430 1198l252 283h121l133 -283h-121l-90 201l-174 -201h-121z " />
<glyph unicode="&#xe3;" d="M119 276q49 236 278 295l240 66q70 16 93.5 46t43.5 122q7 34 8 61q0 123 -151 123q-205 0 -258 -239h-121q74 340 401 340q251 0 252 -198q0 -39 -10 -85l-133 -631q-4 -20 -4 -36q0 -52 47 -52h35l-19 -88q-37 -12 -59 -12q-78 0 -110 27q-21 18 -21 59q0 21 6 47l8 35 h-4q-100 -180 -315 -181q-219 0 -219 198q0 46 12 103zM250 285q-8 -36 -8 -67q0 -49 20 -85q33 -57 111 -57q113 0 196.5 81t114.5 220l49 225h-4q-25 -43 -145 -70l-105 -26q-98 -25 -154.5 -77t-74.5 -144zM422 1237q18 70 75.5 133.5t118.5 63.5q49 0 107 -37l45 -31 q31 -20 55 -20q29 0 57.5 32.5t34.5 63.5h89q-18 -72 -75 -134.5t-122 -62.5q-49 0 -92 29l-68 43q-29 16 -45 16q-27 0 -51.5 -29.5t-40.5 -66.5h-88z" />
<glyph unicode="&#xe4;" d="M119 276q49 236 278 295l240 66q70 16 93.5 46t43.5 122q7 34 8 61q0 123 -151 123q-205 0 -258 -239h-121q74 340 401 340q251 0 252 -198q0 -39 -10 -85l-133 -631q-4 -20 -4 -36q0 -52 47 -52h35l-19 -88q-37 -12 -59 -12q-78 0 -110 27q-21 18 -21 59q0 21 6 47l8 35 h-4q-100 -180 -315 -181q-219 0 -219 198q0 46 12 103zM250 285q-8 -36 -8 -67q0 -49 20 -85q33 -57 111 -57q113 0 196.5 81t114.5 220l49 225h-4q-25 -43 -145 -70l-105 -26q-98 -25 -154.5 -77t-74.5 -144zM479 1241l45 205h121l-45 -205h-121zM780 1241l45 205h121 l-45 -205h-121z" />
<glyph unicode="&#xe5;" d="M119 276q49 236 278 295l240 66q70 16 93.5 46t43.5 122q7 34 8 61q0 123 -151 123q-205 0 -258 -239h-121q74 340 401 340q251 0 252 -198q0 -39 -10 -85l-133 -631q-4 -20 -4 -36q0 -52 47 -52h35l-19 -88q-37 -12 -59 -12q-78 0 -110 27q-21 18 -21 59q0 21 6 47l8 35 h-4q-100 -180 -315 -181q-219 0 -219 198q0 46 12 103zM250 285q-8 -36 -8 -67q0 -49 20 -85q33 -57 111 -57q113 0 196.5 81t114.5 220l49 225h-4q-25 -43 -145 -70l-105 -26q-98 -25 -154.5 -77t-74.5 -144zM528 1367q16 79 84 134t147 55t123 -55q32 -40 32 -93 q0 -20 -5 -41q-16 -79 -84.5 -135t-146.5 -56t-122 56q-32 41 -32 94q0 20 4 41zM600 1367q-3 -14 -3 -27q0 -33 19 -57q27 -34 77 -34t92 34t53 84q3 14 2 26q0 33 -20 58q-28 34 -78 34t-91 -34t-51 -84z" />
<glyph unicode="&#xe6;" horiz-adv-x="1300" d="M119 276q29 133 102.5 201t227.5 105l151 39q61 18 90 47.5t45 107.5q10 53 11 92q0 46 -15 72q-27 49 -115 49q-190 0 -243 -239h-121q74 340 389 340q96 0 154.5 -43t60.5 -129h4q45 82 123 127t164 45q176 0 223 -138q20 -58 20 -144q0 -115 -36 -280h-551l-12 -59 q-19 -106 -20 -182q0 -70 16 -116q34 -95 128 -95q88 0 165 78.5t104 197.5h121q-49 -178 -156 -277.5t-252 -99.5q-203 0 -227 222h-4q-109 -221 -340 -222q-219 0 -219 198q0 46 12 103zM250 285q-8 -36 -8 -67q0 -49 20 -85q33 -57 111 -57q82 0 162.5 69.5t109.5 206.5 l47 221h-4q-23 -25 -100 -43l-131 -34q-96 -27 -143.5 -75t-63.5 -136zM825 629h422q19 94 19 163q0 197 -154 197q-205 0 -287 -360z" />
<glyph unicode="&#xe7;" horiz-adv-x="815" d="M166 -369l37 62q55 -31 114 -31q68 0 109 25.5t49 62.5t-19.5 55.5t-72.5 18.5q-53 0 -92 -21l-19 35l127 137q-256 8 -255 313q0 105 30 247q59 274 182 414.5t301 140.5q152 0 219 -89q48 -63 47 -164q0 -41 -8 -87h-120q5 37 5 68q0 72 -27 113q-38 58 -134 58 q-113 0 -198 -98t-140 -359q-31 -145 -33 -240v-14q0 -85 25 -125q27 -44 58.5 -60.5t80.5 -16.5q193 0 279 276h120q-45 -152 -138 -251t-216 -121l-92 -93l4 -2q25 10 70 11q66 0 102 -39q28 -29 28 -69q0 -13 -3 -28q-16 -78 -93 -124t-155 -46q-98 0 -172 41z" />
<glyph unicode="&#xe8;" d="M186 535q59 274 182.5 414.5t301.5 140.5t234 -125q28 -63 29 -163q0 -98 -28 -231l-10 -43h-582l-10 -51q-24 -111 -24 -190q0 -73 21 -118q44 -93 144 -93q197 0 283 276h121q-51 -172 -164 -274.5t-260 -102.5q-268 0 -268 313q0 106 30 247zM336 629h452 q20 100 20 170q0 67 -17 107q-37 83 -152 83t-187.5 -82.5t-115.5 -277.5zM547 1481h141l90 -283h-96z" />
<glyph unicode="&#xe9;" d="M186 535q59 274 182.5 414.5t301.5 140.5t234 -125q28 -63 29 -163q0 -98 -28 -231l-10 -43h-582l-10 -51q-24 -111 -24 -190q0 -73 21 -118q44 -93 144 -93q197 0 283 276h121q-51 -172 -164 -274.5t-260 -102.5q-268 0 -268 313q0 106 30 247zM336 629h452 q20 100 20 170q0 67 -17 107q-37 83 -152 83t-187.5 -82.5t-115.5 -277.5zM606 1198l211 283h141l-256 -283h-96z" />
<glyph unicode="&#xea;" d="M186 535q59 274 182.5 414.5t301.5 140.5t234 -125q28 -63 29 -163q0 -98 -28 -231l-10 -43h-582l-10 -51q-24 -111 -24 -190q0 -73 21 -118q44 -93 144 -93q197 0 283 276h121q-51 -172 -164 -274.5t-260 -102.5q-268 0 -268 313q0 106 30 247zM336 629h452 q20 100 20 170q0 67 -17 107q-37 83 -152 83t-187.5 -82.5t-115.5 -277.5zM440 1198l252 283h121l133 -283h-121l-90 201l-176 -201h-119z" />
<glyph unicode="&#xeb;" d="M186 535q59 274 182.5 414.5t301.5 140.5t234 -125q28 -63 29 -163q0 -98 -28 -231l-10 -43h-582l-10 -51q-24 -111 -24 -190q0 -73 21 -118q44 -93 144 -93q197 0 283 276h121q-51 -172 -164 -274.5t-260 -102.5q-268 0 -268 313q0 106 30 247zM336 629h452 q20 100 20 170q0 67 -17 107q-37 83 -152 83t-187.5 -82.5t-115.5 -277.5zM489 1241l46 205h118l-43 -205h-121zM791 1241l45 205h118l-43 -205h-120z" />
<glyph unicode="&#xec;" horiz-adv-x="368" d="M125 0l227 1065h119l-225 -1065h-121zM293 1481h143l90 -283h-96z" />
<glyph unicode="&#xed;" horiz-adv-x="368" d="M125 0l227 1065h119l-225 -1065h-121zM352 1198l211 283h144l-256 -283h-99z" />
<glyph unicode="&#xee;" horiz-adv-x="368" d="M125 0l227 1065h119l-225 -1065h-121zM186 1198l254 283h119l133 -283h-121l-90 201l-174 -201h-121z" />
<glyph unicode="&#xef;" horiz-adv-x="368" d="M125 0l227 1065h119l-225 -1065h-121zM238 1241l43 205h120l-45 -205h-118zM539 1241l43 205h120l-45 -205h-118z" />
<glyph unicode="&#xf0;" d="M170 522q57 260 181 401.5t282 141.5q121 0 174 -107l4 5q-70 186 -162 319l-157 -82l-62 64l166 90q-41 55 -117 135l109 65q74 -78 121 -145l161 84l62 -59l-172 -91q78 -109 120 -219t57 -264q4 -40 4 -82q0 -117 -32 -243q-59 -276 -184 -418t-303 -142 q-176 0 -242 140q-36 76 -35 189q0 95 25 218zM299 522q-27 -126 -27 -216q0 -230 172 -230q109 0 196 106.5t136 339.5q27 126 27 216q0 227 -170 227q-109 0 -196 -106t-138 -337z" />
<glyph unicode="&#xf1;" horiz-adv-x="890" d="M117 0l227 1065h107l-31 -147h4q127 172 309 172q127 0 185 -70q38 -46 38 -127q0 -40 -10 -88l-172 -805h-121l166 770q8 42 8 76q0 143 -145 143q-106 0 -186 -74.5t-107 -197.5l-151 -717h-121zM440 1237q16 70 74.5 133.5t120.5 63.5q49 0 106 -37l45 -31 q31 -20 56 -20q29 0 57.5 32.5t34.5 63.5h88q-18 -72 -74.5 -134.5t-122.5 -62.5q-47 0 -92 29l-69 43q-27 16 -43 16q-27 0 -51.5 -29.5t-41.5 -66.5h-88z" />
<glyph unicode="&#xf2;" d="M174 535q59 274 182 414.5t302.5 140.5t243.5 -141q34 -74 34 -186q0 -99 -27 -228q-59 -276 -184 -418t-303 -142t-243 142q-34 74 -33 184q0 101 28 234zM303 535q-29 -135 -29 -230q0 -229 170 -229q236 0 336 459q27 130 27 222q0 232 -168 232q-242 1 -336 -454z M537 1481h141l90 -283h-96z" />
<glyph unicode="&#xf3;" d="M174 535q59 274 182 414.5t302.5 140.5t243.5 -141q34 -74 34 -186q0 -99 -27 -228q-59 -276 -184 -418t-303 -142t-243 142q-34 74 -33 184q0 101 28 234zM303 535q-29 -135 -29 -230q0 -229 170 -229q236 0 336 459q27 130 27 222q0 232 -168 232q-242 1 -336 -454z M596 1198l211 283h143l-258 -283h-96z" />
<glyph unicode="&#xf4;" d="M174 535q59 274 182 414.5t302.5 140.5t243.5 -141q34 -74 34 -186q0 -99 -27 -228q-59 -276 -184 -418t-303 -142t-243 142q-34 74 -33 184q0 101 28 234zM303 535q-29 -135 -29 -230q0 -229 170 -229q236 0 336 459q27 130 27 222q0 232 -168 232q-242 1 -336 -454z M430 1198l252 283h121l133 -283h-121l-90 201l-174 -201h-121z" />
<glyph unicode="&#xf5;" d="M174 535q59 274 182 414.5t302.5 140.5t243.5 -141q34 -74 34 -186q0 -99 -27 -228q-59 -276 -184 -418t-303 -142t-243 142q-34 74 -33 184q0 101 28 234zM303 535q-29 -135 -29 -230q0 -229 170 -229q236 0 336 459q27 130 27 222q0 232 -168 232q-242 1 -336 -454z M422 1237q18 70 75.5 133.5t118.5 63.5q49 0 107 -37l45 -31q31 -20 55 -20q29 0 57.5 32.5t34.5 63.5h89q-18 -72 -75 -134.5t-122 -62.5q-49 0 -92 29l-68 43q-29 16 -45 16q-27 0 -51.5 -29.5t-40.5 -66.5h-88z" />
<glyph unicode="&#xf6;" d="M174 535q59 274 182 414.5t302.5 140.5t243.5 -141q34 -74 34 -186q0 -99 -27 -228q-59 -276 -184 -418t-303 -142t-243 142q-34 74 -33 184q0 101 28 234zM303 535q-29 -135 -29 -230q0 -229 170 -229q236 0 336 459q27 130 27 222q0 232 -168 232q-242 1 -336 -454z M479 1241l45 205h121l-45 -205h-121zM780 1241l45 205h121l-45 -205h-121z" />
<glyph unicode="&#xf7;" horiz-adv-x="1204" d="M190 457l23 100h1016l-23 -100h-1016zM512 94q8 45 48 78t87 33q43 0 70 -32q19 -23 19 -54q0 -12 -3 -25q-8 -45 -48 -77.5t-87 -32.5q-45 0 -71 32q-18 23 -18 53q0 12 3 25zM688 922q10 45 48 77.5t84 32.5t73 -33q19 -24 19 -54q0 -12 -3 -24q-10 -46 -50 -78 t-85 -32t-71 33q-18 23 -18 53q0 12 3 25z" />
<glyph unicode="&#xf8;" d="M109 -80l98 152q-62 83 -62 230q0 101 29 233q59 274 182 414.5t301 140.5q100 0 164 -43l82 129l68 -31l-97 -152q61 -82 61 -232q0 -98 -26 -226q-59 -276 -184 -418t-303 -142q-100 0 -162 48l-84 -134zM287 203l467 739q-41 47 -115 47q-242 0 -336 -454 q-29 -129 -29 -223q0 -62 13 -109zM328 127q41 -51 116 -51q236 0 336 459q26 129 26 218q0 65 -13 109z" />
<glyph unicode="&#xf9;" horiz-adv-x="890" d="M172 260l172 805h119l-160 -750q-12 -58 -12 -100q0 -53 18 -84q33 -55 129 -55q102 0 183 75.5t108 198.5l152 715h120l-227 -1065h-108l32 150h-4q-127 -174 -311 -175q-129 0 -185 71q-36 46 -37 122q0 41 11 92zM553 1481h143l90 -283h-96z" />
<glyph unicode="&#xfa;" horiz-adv-x="890" d="M172 260l172 805h119l-160 -750q-12 -58 -12 -100q0 -53 18 -84q33 -55 129 -55q102 0 183 75.5t108 198.5l152 715h120l-227 -1065h-108l32 150h-4q-127 -174 -311 -175q-129 0 -185 71q-36 46 -37 122q0 41 11 92zM614 1198l211 283h142l-256 -283h-97z" />
<glyph unicode="&#xfb;" horiz-adv-x="890" d="M172 260l172 805h119l-160 -750q-12 -58 -12 -100q0 -53 18 -84q33 -55 129 -55q102 0 183 75.5t108 198.5l152 715h120l-227 -1065h-108l32 150h-4q-127 -174 -311 -175q-129 0 -185 71q-36 46 -37 122q0 41 11 92zM449 1198l251 283h121l133 -283h-120l-91 201 l-176 -201h-118z" />
<glyph unicode="&#xfc;" horiz-adv-x="890" d="M172 260l172 805h119l-160 -750q-12 -58 -12 -100q0 -53 18 -84q33 -55 129 -55q102 0 183 75.5t108 198.5l152 715h120l-227 -1065h-108l32 150h-4q-127 -174 -311 -175q-129 0 -185 71q-36 46 -37 122q0 41 11 92zM498 1241l45 205h119l-44 -205h-120zM799 1241l45 205 h119l-43 -205h-121z" />
<glyph unicode="&#xfd;" horiz-adv-x="741" d="M-20 -350l22 100q47 -2 76 -2q59 0 103 31t85 110l53 101l-77 1075h127l43 -922h4l411 922h127l-555 -1151q-74 -158 -145.5 -212t-194.5 -54q-30 0 -79 2zM541 1198l211 283h141l-256 -283h-96z" />
<glyph unicode="&#xfe;" horiz-adv-x="890" d="M31 -352l379 1786h120l-116 -545h4q43 90 124 145.5t167 55.5q254 0 253 -307q0 -107 -30 -251q-119 -557 -461 -557q-98 0 -152.5 49.5t-56.5 135.5h-4l-106 -512h-121zM306 287q0 -89 24 -131q25 -45 58.5 -62.5t84.5 -17.5q109 0 192 93t138 363q31 141 33 237v14 q0 85 -24 126q-26 45 -59.5 62.5t-85 17.5t-92 -17.5t-85 -62.5t-84 -140t-69.5 -238q-31 -147 -31 -244z" />
<glyph unicode="&#xff;" horiz-adv-x="741" d="M-20 -350l22 100q47 -2 76 -2q59 0 103 31t85 110l53 101l-77 1075h127l43 -922h4l411 922h127l-555 -1151q-74 -158 -145.5 -212t-194.5 -54q-30 0 -79 2zM424 1241l43 205h121l-43 -205h-121zM725 1241l43 205h121l-43 -205h-121z" />
<glyph unicode="&#x131;" horiz-adv-x="368" d="M125 0l227 1065h119l-225 -1065h-121z" />
<glyph unicode="&#x141;" d="M74 477l24 121l162 96l158 740h129l-139 -652l428 256l-27 -120l-428 -256l-119 -553h594l-20 -109h-723l123 573z" />
<glyph unicode="&#x142;" horiz-adv-x="368" d="M106 502l27 121l152 131l145 680h121l-117 -551l152 133l-27 -121l-151 -133l-162 -762h-121l133 635z" />
<glyph unicode="&#x152;" horiz-adv-x="1560" d="M238 717q156 739 614 739q201 0 246 -139h4l26 117h680l-24 -109h-551l-111 -522h514l-22 -109h-514l-127 -585h571l-22 -109h-699l29 129h-4q-96 -154 -311 -154q-340 0 -341 408q1 143 42 334zM349 226q50 -142 210 -142q150 0 235 90t130 301l108 510q20 97 20 166 q0 77 -25 119q-48 80 -198 80q-162 0 -277.5 -148.5t-186.5 -484.5q-37 -197 -38 -329q0 -100 22 -162z" />
<glyph unicode="&#x153;" horiz-adv-x="1411" d="M190 535q59 274 182.5 414.5t301.5 140.5q106 0 170.5 -56.5t70.5 -167.5h5q104 223 323 224q176 0 223 -138q20 -58 20 -144q0 -115 -36 -280h-551l-12 -59q-19 -106 -19 -182q0 -70 16 -116q34 -95 128 -95q88 0 164.5 78.5t103.5 197.5h121q-47 -178 -154.5 -277.5 t-253.5 -99.5q-96 0 -154.5 49.5t-74.5 172.5h-4q-51 -106 -135 -164t-187 -58q-180 0 -243 142q-33 73 -33 182q-1 102 28 236zM293 263q12 -101 52 -144t106 -43q229 0 329 459q25 140 25 232q0 76 -17 122q-37 100 -141 100t-191 -108.5t-137 -345.5q-30 -129 -29 -219 q0 -29 3 -53zM922 629h421q19 94 20 163q0 197 -155 197q-204 0 -286 -360z" />
<glyph unicode="&#x160;" horiz-adv-x="962" d="M143 401l9 43h127l-13 -55q-10 -47 -9 -87q0 -80 37 -135q56 -83 193 -83q141 0 240.5 73.5t130.5 217.5q8 36 8 67q0 44 -15 78q-26 59 -80 91t-123.5 55.5t-137.5 51t-121 67.5t-76 114q-11 37 -11 81.5t11 96.5q37 172 164 275.5t311 103.5q321 0 322 -267 q0 -56 -14 -124h-129q12 52 11 95q0 69 -30 115q-49 75 -178 75q-125 0 -213 -74t-111 -184q-8 -37 -7 -69q0 -34 8 -64q17 -56 60.5 -85.5t99 -56t116.5 -45t117.5 -48.5t97.5 -68t57 -104q7 -30 8 -64q0 -43 -12 -93q-41 -203 -182 -311.5t-342 -108.5q-203 0 -286 109 q-53 70 -53 183q0 60 15 134zM606 1784h121l90 -203l178 203h121l-258 -283h-119z" />
<glyph unicode="&#x161;" horiz-adv-x="780" d="M129 307l6 35h119l-4 -29q-10 -46 -10 -83q0 -154 163 -154q96 0 165 51t85 139q7 31 7 58q0 36 -13 63q-23 47 -94 76l-156 67q-156 65 -155 197q0 26 6 55q31 158 133 233t248 75q241 0 241 -199q0 -44 -12 -98l-6 -31h-119l6 31q8 37 8 67q0 129 -141 129 q-195 0 -233 -180q-6 -25 -6 -46q0 -32 13 -58q22 -43 99 -74l162 -68q147 -60 147 -202q0 -32 -8 -68q-29 -141 -131 -229.5t-266 -88.5q-168 0 -230 78q-38 48 -39 133q0 53 15 121zM451 1481h120l91 -203l180 203h119l-256 -283h-121z" />
<glyph unicode="&#x178;" horiz-adv-x="890" d="M299 1434h137l162 -715l467 715h137l-569 -861l-123 -573h-129l123 573zM561 1544l45 205h121l-45 -205h-121zM862 1544l45 205h121l-45 -205h-121z" />
<glyph unicode="&#x17d;" horiz-adv-x="925" d="M45 0l25 121l954 1204h-659l24 109h789l-25 -121l-944 -1204h696l-22 -109h-838zM588 1784h121l90 -203l178 203h121l-256 -283h-121z" />
<glyph unicode="&#x17e;" horiz-adv-x="704" d="M37 0l20 100l691 865h-482l23 100h608l-23 -100l-688 -865h506l-22 -100h-633zM414 1481h121l90 -203l178 203h121l-258 -283h-119z" />
<glyph unicode="&#x192;" horiz-adv-x="962" d="M-98 -340l45 100q27 -12 61 -12q70 0 112 20.5t87 90t104 213.5l293 725h-211l37 88h211l107 262q116 287 382 287q25 0 93 -9l-45 -100q-31 8 -52 8q-51 0 -83.5 -8t-71.5 -38t-75 -90t-75 -161l-61 -151h225l-35 -88h-225l-309 -766q-86 -215 -175 -299t-235 -84 q-69 0 -104 12z" />
<glyph unicode="&#x2c6;" horiz-adv-x="372" d="M188 1198l254 283h119l133 -283h-121l-90 201l-174 -201h-121z" />
<glyph unicode="&#x2c7;" horiz-adv-x="372" d="M248 1481h119l90 -203l180 203h119l-256 -283h-121z" />
<glyph unicode="&#x2c9;" horiz-adv-x="372" d="M223 1296l21 88h477l-21 -88h-477z" />
<glyph unicode="&#x2d8;" horiz-adv-x="372" d="M252 1456h90q-6 -70 27 -115q31 -41 94 -41t113.5 41t74.5 115h88q-33 -111 -112.5 -177.5t-182 -66.5t-154.5 66.5t-38 177.5z" />
<glyph unicode="&#x2d9;" horiz-adv-x="372" d="M389 1241l45 205h119l-43 -205h-121z" />
<glyph unicode="&#x2da;" horiz-adv-x="372" d="M287 1367q16 79 84.5 134t146.5 55t122 -55q32 -40 32 -93q0 -20 -4 -41q-16 -79 -84 -135t-147 -56t-123 56q-32 41 -32 94q1 20 5 41zM359 1367q-2 -13 -2 -25q0 -34 19 -59q26 -34 76 -34t92 34t52 84q3 14 3 27q0 33 -19 57q-27 34 -78 34t-92.5 -34t-50.5 -84z" />
<glyph unicode="&#x2db;" horiz-adv-x="372" d="M-31 -264q18 80 87 154.5t180 121.5h94q-219 -131 -248 -256q-3 -14 -3 -25q0 -69 93 -69q57 0 127 39l14 -57q-86 -53 -194 -54q-92 0 -128 41q-26 29 -26 70q0 17 4 35z" />
<glyph unicode="&#x2dc;" horiz-adv-x="372" d="M180 1237q18 70 76.5 133.5t118.5 63.5q51 0 106 -37l47 -31q29 -20 54 -20q31 0 58.5 32.5t33.5 63.5h88q-16 -72 -72.5 -134.5t-124.5 -62.5q-47 0 -92 29l-67 43q-29 16 -46 16q-25 0 -50 -29.5t-42 -66.5h-88z" />
<glyph unicode="&#x2dd;" horiz-adv-x="372" d="M205 1198l209 283h141l-256 -283h-94zM508 1198l209 283h141l-256 -283h-94z" />
<glyph unicode="&#x3a9;" horiz-adv-x="1247" d="M92 0l21 98h264l2 6q-84 111 -114 267q-13 69 -13 152q0 103 20 227q66 301 252.5 483t407.5 182q223 0 321 -187q60 -115 61 -268q0 -95 -24 -204q-43 -207 -149.5 -379t-231.5 -273l-2 -6h267l-19 -98h-405l14 72q133 92 248.5 269t161.5 392q20 79 19 161q0 20 -1 41 q-6 103 -31.5 187t-92.5 138.5t-161 54.5q-180 0 -325.5 -166t-198.5 -416q-19 -112 -19 -211.5t19 -187.5q39 -176 131 -262l-16 -72h-406z" />
<glyph unicode="&#x3bc;" horiz-adv-x="890" d="M43 -352l301 1417h119l-160 -750q-27 -129 6 -184t129 -55q102 0 183 75.5t108 198.5l152 715h120l-227 -1065h-108l32 150h-4q-127 -174 -311 -175q-117 0 -135 50h-4l-82 -377h-119z" />
<glyph unicode="&#x3c0;" horiz-adv-x="985" d="M109 0q82 152 178 428.5t151 505.5q-137 0 -202 -25l-5 76q82 49 252 49h680l-30 -100h-144l-137 -651q-36 -165 -36 -253q0 -17 1 -30h-106q-5 15 -6 43q0 71 34 227l140 664h-330q-57 -227 -156.5 -514t-175.5 -420h-108z" />
<glyph unicode="&#x2000;" horiz-adv-x="929" />
<glyph unicode="&#x2001;" horiz-adv-x="1859" />
<glyph unicode="&#x2002;" horiz-adv-x="929" />
<glyph unicode="&#x2003;" horiz-adv-x="1859" />
<glyph unicode="&#x2004;" horiz-adv-x="618" />
<glyph unicode="&#x2005;" horiz-adv-x="464" />
<glyph unicode="&#x2006;" horiz-adv-x="309" />
<glyph unicode="&#x2007;" horiz-adv-x="309" />
<glyph unicode="&#x2008;" horiz-adv-x="231" />
<glyph unicode="&#x2009;" horiz-adv-x="370" />
<glyph unicode="&#x200a;" horiz-adv-x="102" />
<glyph unicode="&#x2010;" horiz-adv-x="667" d="M227 516l23 109h434l-22 -109h-435z" />
<glyph unicode="&#x2011;" horiz-adv-x="667" d="M227 516l23 109h434l-22 -109h-435z" />
<glyph unicode="&#x2012;" horiz-adv-x="667" d="M227 516l23 109h434l-22 -109h-435z" />
<glyph unicode="&#x2013;" horiz-adv-x="1003" d="M111 516l22 109h1004l-23 -109h-1003z" />
<glyph unicode="&#x2014;" horiz-adv-x="2007" d="M111 516l22 109h2007l-22 -109h-2007z" />
<glyph unicode="&#x2018;" horiz-adv-x="481" d="M369 952l43 203q47 223 209 279l-19 -80q-43 -25 -67.5 -69t-45.5 -130h60l-43 -203h-137z" />
<glyph unicode="&#x2019;" horiz-adv-x="481" d="M369 952l16 80q78 41 113 197h-58l43 205h138l-46 -205q-42 -222 -206 -277z" />
<glyph unicode="&#x201a;" horiz-adv-x="481" d="M109 -276l16 79q78 43 113 197h-60l45 205h135l-43 -205q-48 -223 -206 -276z" />
<glyph unicode="&#x201c;" horiz-adv-x="704" d="M350 952l41 203q49 223 209 279l-18 -80q-41 -25 -67 -69t-46 -130h59l-43 -203h-135zM614 952l41 203q49 223 209 279l-16 -80q-43 -25 -68.5 -69t-44.5 -130h58l-41 -203h-138z" />
<glyph unicode="&#x201d;" horiz-adv-x="704" d="M350 952l15 80q80 41 112 197h-57l43 205h137l-45 -205q-43 -222 -205 -277zM614 952l17 80q78 41 112 197h-59l45 205h135l-43 -205q-45 -222 -207 -277z" />
<glyph unicode="&#x201e;" horiz-adv-x="704" d="M88 -276l16 79q78 43 113 197h-59l45 205h137l-45 -205q-47 -223 -207 -276zM352 -276l17 79q80 43 112 197h-57l43 205h137l-45 -205q-47 -223 -207 -276z" />
<glyph unicode="&#x2020;" horiz-adv-x="962" d="M256 883l20 100h355l96 451h121l-96 -451h352l-21 -100h-352l-252 -1174h-121l252 1174h-354z" />
<glyph unicode="&#x2021;" horiz-adv-x="962" d="M94 123l23 100h352l147 697h-354l23 100h354l88 414h121l-90 -414h354l-22 -100h-353l-147 -697h354l-22 -100h-355l-88 -414h-121l91 414h-355z" />
<glyph unicode="&#x2022;" horiz-adv-x="1003" d="M297 716.5q33 147.5 160 252t274.5 104.5t230 -105.5t50.5 -250.5q-33 -150 -160 -254.5t-274.5 -104.5t-230.5 105.5t-50 253z" />
<glyph unicode="&#x2026;" horiz-adv-x="2007" d="M266 0l45 205h138l-46 -205h-137zM936 0l43 205h137l-45 -205h-135zM1604 0l45 205h135l-43 -205h-137z" />
<glyph unicode="&#x202f;" horiz-adv-x="370" />
<glyph unicode="&#x2030;" horiz-adv-x="2007" d="M330 1053q43 207 122.5 287.5t207.5 80.5t174 -81q23 -41 23 -115q0 -71 -21 -172q-43 -207 -123 -289t-209 -82t-173 81q-22 41 -23 114q1 73 22 176zM342 -25l922 1446h100l-922 -1446h-100zM438 1053q-17 -82 -17 -141q0 -142 102 -142q144 0 204 283q17 82 17 139 q0 141 -102 141q-145 1 -204 -280zM864 346q43 207 123 288t209 81t173 -81q22 -41 22 -114q0 -71 -21 -174q-43 -207 -124 -289t-209 -82t-172 81q-22 41 -22 115q0 72 21 175zM973 346q-17 -82 -18 -141q0 -142 103 -142q144 0 204 283q17 82 17 140q0 141 -102 141 q-145 0 -204 -281zM1468 346q43 207 123 288t209 81t173 -81q22 -41 23 -114q0 -71 -22 -174q-43 -207 -124 -289t-209 -82t-172 81q-22 41 -22 115q0 72 21 175zM1577 346q-17 -82 -17 -141q0 -142 102 -142q144 0 204 283q17 82 17 140q0 141 -102 141q-145 0 -204 -281z " />
<glyph unicode="&#x2039;" horiz-adv-x="483" d="M225 510l25 121l309 278l-27 -137l-223 -203l137 -202l-30 -136z" />
<glyph unicode="&#x203a;" horiz-adv-x="483" d="M164 231l31 136l221 202l-135 203l28 137l193 -278l-27 -121z" />
<glyph unicode="&#x2044;" horiz-adv-x="333" d="M-348 -59l1227 1515h100l-1227 -1515h-100z" />
<glyph unicode="&#x205f;" horiz-adv-x="464" />
<glyph unicode="&#x20ac;" horiz-adv-x="962" d="M147 557l60 109h98l12 65q4 12 8.5 31.5t8.5 32.5h-137l59 108h109q170 522 587 522q143 0 289 -90l-72 -110q-70 47 -123 70.5t-124 23.5q-86 0 -158 -35t-120 -98.5t-81 -130t-59 -152.5h516l-62 -108h-487q-2 -12 -8 -32t-8 -32l-11 -65h459l-61 -109h-420 q-10 -76 -14 -135l-2 -37q0 -43 7 -90q9 -68 33.5 -113t78 -75.5t130.5 -30.5q82 0 146.5 31.5t156.5 97.5l-30 -148q-135 -82 -295 -82q-131 0 -214 47.5t-114 128t-37 186.5q-1 23 -1 46q0 84 18 174h-138z" />
<glyph unicode="&#x2113;" horiz-adv-x="843" d="M137 379q14 12 78 61t94 76l119 555q51 248 150.5 356.5t207.5 108.5q100 0 137 -85q20 -47 20 -111q0 -51 -13 -111q-74 -342 -520 -735l-15 -68q-19 -92 -19 -160q0 -188 146 -188q141 0 277 178l47 -45q-162 -225 -363 -225q-145 0 -191 106q-27 62 -27 148 q0 61 14 135l6 28l-123 -92zM436 618q356 338 416 609q11 55 11 96q0 121 -99 121q-61 0 -126 -89t-103 -276z" />
<glyph unicode="&#x2122;" horiz-adv-x="1986" d="M369 1346l20 88h643l-20 -88h-271l-157 -740h-101l158 740h-272zM1004 606l176 828h174l121 -672l399 672h174l-178 -828h-101l158 740h-4l-457 -740h-59l-143 740h-4l-156 -740h-100z" />
<glyph unicode="&#x2126;" horiz-adv-x="1247" d="M92 0l21 98h264l2 6q-84 111 -114 267q-13 69 -13 152q0 103 20 227q66 301 252.5 483t407.5 182q223 0 321 -187q60 -115 61 -268q0 -95 -24 -204q-43 -207 -149.5 -379t-231.5 -273l-2 -6h267l-19 -98h-405l14 72q133 92 248.5 269t161.5 392q20 79 19 161q0 20 -1 41 q-6 103 -31.5 187t-92.5 138.5t-161 54.5q-180 0 -325.5 -166t-198.5 -416q-19 -112 -19 -211.5t19 -187.5q39 -176 131 -262l-16 -72h-406z" />
<glyph unicode="&#x212e;" horiz-adv-x="2041" d="M369 698q0 299 235.5 511t568 212t567 -212t234.5 -511v-20h-1300q-10 0 -10 -8v-394q0 -25 18 -45q203 -213 492 -213q307 0 516 238h116q-111 -127 -278.5 -203t-356.5 -76q-332 0 -567 211t-235 510zM664 729q0 -12 10 -12h997q8 0 8 12v397q0 29 -20 45 q-205 205 -485 205q-283 0 -490 -211q-20 -18 -20 -49v-387z" />
<glyph unicode="&#x2202;" horiz-adv-x="948" d="M172 438q49 223 191.5 366.5t293.5 143.5q106 0 171 -57t83 -121h2q4 12 11.5 44l9.5 40q26 126 26 230q0 119 -34 209q-63 169 -201 169q-131 0 -254 -94l-22 86q145 106 305 107q117 0 195.5 -76t109.5 -243q11 -58 11 -128q0 -130 -38 -301q-80 -379 -243.5 -603 t-380.5 -224q-158 0 -218 129q-35 76 -35 175q0 69 17 148zM285 440q-16 -75 -16 -136q0 -72 22 -125q41 -97 145 -97h2q125 0 244 159.5t186 395.5q-6 82 -62 148.5t-155 66.5q-113 0 -221 -121t-145 -291z" />
<glyph unicode="&#x2206;" horiz-adv-x="1122" d="M59 0l19 82l729 1348h125l151 -1346l-18 -84h-1006zM190 94h777l-95 817q-4 43 -19 176.5t-17 186.5h-9q-20 -47 -89.5 -173t-86.5 -163z" />
<glyph unicode="&#x220f;" horiz-adv-x="1505" d="M346 1286v107h1112v-107h-188v-1479h-111v1479h-514v-1479h-110v1479h-189z" />
<glyph unicode="&#x2211;" horiz-adv-x="1265" d="M340 -113l485 711l-465 713v82h836v-101h-682v-6l440 -672l-475 -688v-8h748v-111h-887v80z" />
<glyph unicode="&#x2212;" horiz-adv-x="1204" d="M190 457l23 100h1016l-23 -100h-1016z" />
<glyph unicode="&#x2215;" horiz-adv-x="333" d="M-348 -59l1227 1515h100l-1227 -1515h-100z" />
<glyph unicode="&#x2219;" horiz-adv-x="481" d="M270.5 658q10.5 44 48 77t85 33t73 -33t15 -78t-50.5 -76.5t-85 -31.5t-70.5 32.5t-15 76.5z" />
<glyph unicode="&#x221a;" horiz-adv-x="1310" d="M365 664l229 88l235 -752q18 -68 29 -147h2q23 133 25 143l336 1659h84l-390 -1960h-102l-293 944l-131 -49z" />
<glyph unicode="&#x221e;" horiz-adv-x="1599" d="M274 573q0 123 81 204t202 81q94 0 174 -57.5t168 -163.5q70 78 103.5 111.5t102.5 71.5t140 38q117 0 189.5 -76.5t72.5 -199.5v-2q0 -125 -82 -205t-194 -80q-82 0 -158 51t-180 168q-61 -70 -101 -108.5t-108 -74.5t-137 -36q-113 0 -193 80.5t-80 197.5zM412.5 428 q54.5 -57 142.5 -57h2q29 0 60.5 11t51 22.5t52.5 38t44 38.5l45 48l40 42q-59 74 -90 107t-92.5 69.5t-122.5 36.5q-88 0 -138 -62q-48 -60 -49 -144q0 -93 54.5 -150zM942 578q76 -82 112 -116t86 -62.5t99 -28.5q84 0 135 61.5t51 140.5q0 98 -53 154.5t-135 56.5h-2 q-37 0 -72 -14t-69.5 -41t-56 -48.5t-54.5 -58t-41 -44.5z" />
<glyph unicode="&#x222b;" horiz-adv-x="933" d="M330 -283l22 84q53 -20 80 -20q53 0 84 49q61 86 62 350q0 162 -11.5 518.5t-11.5 509.5q0 309 96 414q63 74 160 74q49 0 94 -27l-24 -80q-27 18 -64 19q-57 0 -90 -49q-66 -84 -65 -361q0 -154 12 -506t12 -512q0 -279 -82 -405q-57 -88 -166 -88q-71 -1 -108 30z" />
<glyph unicode="&#x2248;" horiz-adv-x="1179" d="M256 350q88 176 244 176q33 0 65.5 -10t50 -17t52 -27.5t37.5 -20.5q113 -66 169 -66q55 0 93.5 33t79.5 106l49 -41q-80 -174 -228 -174q-33 0 -69.5 11.5t-60 22.5t-81.5 42q-109 66 -167 66t-98 -38t-81 -104zM256 651q88 176 246 176q31 0 64.5 -10t50 -17t50 -26.5 t38.5 -21.5q8 -4 25 -15l25 -14q7 -4 21.5 -11l24.5 -11.5t23.5 -7.5t24.5 -5t25 -2q94 0 173 141l49 -41q-80 -176 -230 -176q-33 0 -68.5 11.5t-59.5 23.5l-81 43q-104 63 -168 64q-98 0 -178 -140z" />
<glyph unicode="&#x2260;" horiz-adv-x="1210" d="M303 352v80h305l121 268h-426v80h457l94 209l66 -28l-82 -181h282v-80h-315l-123 -268h438v-80h-469l-98 -211l-61 27l81 184h-270z" />
<glyph unicode="&#x2264;" horiz-adv-x="1243" d="M336 49v84h817v-84h-817zM346 635v80l801 422v-99l-715 -360v-4l717 -363v-98z" />
<glyph unicode="&#x2265;" horiz-adv-x="1243" d="M336 49v84h817v-84h-817zM346 213v98l713 361v4l-713 362v99l803 -422v-80z" />
<glyph unicode="&#x25ca;" horiz-adv-x="1314" d="M403 696l361 772h92l361 -772l-365 -772h-92zM508 698l266 -569q27 -66 33 -102h6q16 59 33 100l264 565l-264 568q-23 53 -35 104h-4q-16 -63 -35 -104z" />
<glyph unicode="&#xe000;" horiz-adv-x="1065" d="M0 1065h1065v-1065h-1065v1065z" />
<glyph unicode="&#xfb01;" d="M160 0l205 965h-146l23 100h145l27 127q29 129 87 193.5t199 64.5q43 0 76 -6l-22 -101q-23 6 -56 7q-68 0 -106.5 -35t-56.5 -123l-27 -127h188l-22 -100h-189l-204 -965h-121zM610 0l228 1065h118l-225 -1065h-121zM870 1229l45 205h121l-45 -205h-121z" />
<glyph unicode="&#xfb02;" d="M160 0l205 965h-146l23 100h145l27 127q29 129 87 193.5t199 64.5q43 0 76 -6l-22 -101q-23 6 -56 7q-68 0 -106.5 -35t-56.5 -123l-27 -127h188l-22 -100h-189l-204 -965h-121zM610 0l305 1434h121l-305 -1434h-121z" />
<glyph horiz-adv-x="555" d="M207 926q31 150 199 190l155 39q45 8 61.5 25.5t26.5 62.5q1 8 1 15q0 32 -22 52q-28 24 -81 23q-131 0 -160 -125h-100q25 106 91 159.5t187 53.5q119 0 160 -44q29 -31 29 -82q0 -20 -4 -44l-80 -372q-3 -12 -3 -22q0 -32 31 -32h23l-16 -75q-31 -12 -70 -13 q-77 0 -77 56q0 11 3 24l4 29h-4q-59 -109 -201 -109q-94 0 -133 54q-26 36 -26 85q0 24 6 50zM317 938q-3 -15 -3 -29q0 -30 16 -52q23 -32 67 -32q72 0 126.5 47.5t72.5 128.5l22 105h-4q-12 -23 -90 -43l-71 -14q-118 -29 -136 -111z" />
<glyph horiz-adv-x="555" d="M248 1079q74 342 330 342q205 0 205 -206q0 -59 -17 -136q-72 -342 -332 -342q-203 0 -202 208q0 58 16 134zM354 1079q-12 -61 -11 -106q0 -52 14 -85q28 -62 94 -63q70 0 126 62.5t80 191.5q14 65 14.5 113t-14.5 79q-29 62 -98 62q-66 0 -121 -61.5t-84 -192.5z" />
<glyph horiz-adv-x="624" d="M330 1204l14 72q223 2 264 145h90l-180 -860h-108l137 643h-217z" />
<glyph horiz-adv-x="624" d="M174 561q23 104 85.5 180t178.5 156l115 78q78 53 115 101t51 110q4 21 4 39q0 44 -25 70q-35 38 -100 38q-72 0 -123 -47t-74 -135h-108q61 270 332 270q111 0 169 -57q41 -40 41 -110q0 -29 -8 -64q-18 -82 -60 -140.5t-142 -121.5l-117 -76q-158 -100 -207 -201h416 l-19 -90h-524z" />
<glyph horiz-adv-x="624" d="M209 793h108q-3 -16 -3 -32q0 -41 24 -76q33 -48 106 -48q66 0 127.5 44t77.5 126q4 19 4 36q0 49 -30 80q-41 42 -125 42h-54l19 88h37q80 0 135 38.5t67 100.5q5 20 5 37q0 37 -21 64q-31 40 -94 40q-61 0 -113.5 -40t-68.5 -109h-109q25 111 102.5 174t206.5 63 q117 0 172 -56q39 -40 40 -101q0 -25 -7 -54q-16 -74 -64.5 -126t-123.5 -68l-2 -4q80 -10 114 -67q24 -38 24 -87q0 -23 -5 -49q-25 -121 -111 -190.5t-221 -69.5q-223 0 -223 179q0 30 6 65z" />
</font>
</defs>
</svg>
